<?xml version="1.0" encoding="UTF-8" standalone="no"?>
<!DOCTYPE svg PUBLIC "-//W3C//DTD SVG 1.1//EN"
 "http://www.w3.org/Graphics/SVG/1.1/DTD/svg11.dtd">
<!-- Generated by graphviz version 2.40.1 (20161225.0304)
 -->
<!-- Title: ../build/test/print_graph; 38 samples Pages: 1 -->
<svg width="100%" height="100%"
  xmlns="http://www.w3.org/2000/svg" xmlns:xlink="http://www.w3.org/1999/xlink">
<script type="text/ecmascript"><![CDATA[
// SVGPan
// http://www.cyberz.org/blog/2009/12/08/svgpan-a-javascript-svg-panzoomdrag-library/
// Local modification: if(true || ...) below to force panning, never moving.

/**
 *  SVGPan library 1.2
 * ====================
 *
 * Given an unique existing element with id "viewport", including the
 * the library into any SVG adds the following capabilities:
 *
 *  - Mouse panning
 *  - Mouse zooming (using the wheel)
 *  - Object dargging
 *
 * Known issues:
 *
 *  - Zooming (while panning) on Safari has still some issues
 *
 * Releases:
 *
 * 1.2, Sat Mar 20 08:42:50 GMT 2010, Zeng Xiaohui
 *	Fixed a bug with browser mouse handler interaction
 *
 * 1.1, Wed Feb  3 17:39:33 GMT 2010, Zeng Xiaohui
 *	Updated the zoom code to support the mouse wheel on Safari/Chrome
 *
 * 1.0, Andrea Leofreddi
 *	First release
 *
 * This code is licensed under the following BSD license:
 *
 * Copyright 2009-2010 Andrea Leofreddi <a.leofreddi@itcharm.com>. All rights reserved.
 *
 * Redistribution and use in source and binary forms, with or without modification, are
 * permitted provided that the following conditions are met:
 *
 *    1. Redistributions of source code must retain the above copyright notice, this list of
 *       conditions and the following disclaimer.
 *
 *    2. Redistributions in binary form must reproduce the above copyright notice, this list
 *       of conditions and the following disclaimer in the documentation and/or other materials
 *       provided with the distribution.
 *
 * THIS SOFTWARE IS PROVIDED BY Andrea Leofreddi ``AS IS'' AND ANY EXPRESS OR IMPLIED
 * WARRANTIES, INCLUDING, BUT NOT LIMITED TO, THE IMPLIED WARRANTIES OF MERCHANTABILITY AND
 * FITNESS FOR A PARTICULAR PURPOSE ARE DISCLAIMED. IN NO EVENT SHALL Andrea Leofreddi OR
 * CONTRIBUTORS BE LIABLE FOR ANY DIRECT, INDIRECT, INCIDENTAL, SPECIAL, EXEMPLARY, OR
 * CONSEQUENTIAL DAMAGES (INCLUDING, BUT NOT LIMITED TO, PROCUREMENT OF SUBSTITUTE GOODS OR
 * SERVICES; LOSS OF USE, DATA, OR PROFITS; OR BUSINESS INTERRUPTION) HOWEVER CAUSED AND ON
 * ANY THEORY OF LIABILITY, WHETHER IN CONTRACT, STRICT LIABILITY, OR TORT (INCLUDING
 * NEGLIGENCE OR OTHERWISE) ARISING IN ANY WAY OUT OF THE USE OF THIS SOFTWARE, EVEN IF
 * ADVISED OF THE POSSIBILITY OF SUCH DAMAGE.
 *
 * The views and conclusions contained in the software and documentation are those of the
 * authors and should not be interpreted as representing official policies, either expressed
 * or implied, of Andrea Leofreddi.
 */

var root = document.documentElement;

var state = 'none', stateTarget, stateOrigin, stateTf;

setupHandlers(root);

/**
 * Register handlers
 */
function setupHandlers(root){
	setAttributes(root, {
		"onmouseup" : "add(evt)",
		"onmousedown" : "handleMouseDown(evt)",
		"onmousemove" : "handleMouseMove(evt)",
		"onmouseup" : "handleMouseUp(evt)",
		//"onmouseout" : "handleMouseUp(evt)", // Decomment this to stop the pan functionality when dragging out of the SVG element
	});

	if(navigator.userAgent.toLowerCase().indexOf('webkit') >= 0)
		window.addEventListener('mousewheel', handleMouseWheel, false); // Chrome/Safari
	else
		window.addEventListener('DOMMouseScroll', handleMouseWheel, false); // Others

	var g = svgDoc.getElementById("svg");
	g.width = "100%";
	g.height = "100%";
}

/**
 * Instance an SVGPoint object with given event coordinates.
 */
function getEventPoint(evt) {
	var p = root.createSVGPoint();

	p.x = evt.clientX;
	p.y = evt.clientY;

	return p;
}

/**
 * Sets the current transform matrix of an element.
 */
function setCTM(element, matrix) {
	var s = "matrix(" + matrix.a + "," + matrix.b + "," + matrix.c + "," + matrix.d + "," + matrix.e + "," + matrix.f + ")";

	element.setAttribute("transform", s);
}

/**
 * Dumps a matrix to a string (useful for debug).
 */
function dumpMatrix(matrix) {
	var s = "[ " + matrix.a + ", " + matrix.c + ", " + matrix.e + "\n  " + matrix.b + ", " + matrix.d + ", " + matrix.f + "\n  0, 0, 1 ]";

	return s;
}

/**
 * Sets attributes of an element.
 */
function setAttributes(element, attributes){
	for (i in attributes)
		element.setAttributeNS(null, i, attributes[i]);
}

/**
 * Handle mouse move event.
 */
function handleMouseWheel(evt) {
	if(evt.preventDefault)
		evt.preventDefault();

	evt.returnValue = false;

	var svgDoc = evt.target.ownerDocument;

	var delta;

	if(evt.wheelDelta)
		delta = evt.wheelDelta / 3600; // Chrome/Safari
	else
		delta = evt.detail / -90; // Mozilla

	var z = 1 + delta; // Zoom factor: 0.9/1.1

	var g = svgDoc.getElementById("viewport");

	var p = getEventPoint(evt);

	p = p.matrixTransform(g.getCTM().inverse());

	// Compute new scale matrix in current mouse position
	var k = root.createSVGMatrix().translate(p.x, p.y).scale(z).translate(-p.x, -p.y);

        setCTM(g, g.getCTM().multiply(k));

	stateTf = stateTf.multiply(k.inverse());
}

/**
 * Handle mouse move event.
 */
function handleMouseMove(evt) {
	if(evt.preventDefault)
		evt.preventDefault();

	evt.returnValue = false;

	var svgDoc = evt.target.ownerDocument;

	var g = svgDoc.getElementById("viewport");

	if(state == 'pan') {
		// Pan mode
		var p = getEventPoint(evt).matrixTransform(stateTf);

		setCTM(g, stateTf.inverse().translate(p.x - stateOrigin.x, p.y - stateOrigin.y));
	} else if(state == 'move') {
		// Move mode
		var p = getEventPoint(evt).matrixTransform(g.getCTM().inverse());

		setCTM(stateTarget, root.createSVGMatrix().translate(p.x - stateOrigin.x, p.y - stateOrigin.y).multiply(g.getCTM().inverse()).multiply(stateTarget.getCTM()));

		stateOrigin = p;
	}
}

/**
 * Handle click event.
 */
function handleMouseDown(evt) {
	if(evt.preventDefault)
		evt.preventDefault();

	evt.returnValue = false;

	var svgDoc = evt.target.ownerDocument;

	var g = svgDoc.getElementById("viewport");

	if(true || evt.target.tagName == "svg") {
		// Pan mode
		state = 'pan';

		stateTf = g.getCTM().inverse();

		stateOrigin = getEventPoint(evt).matrixTransform(stateTf);
	} else {
		// Move mode
		state = 'move';

		stateTarget = evt.target;

		stateTf = g.getCTM().inverse();

		stateOrigin = getEventPoint(evt).matrixTransform(stateTf);
	}
}

/**
 * Handle mouse button release event.
 */
function handleMouseUp(evt) {
	if(evt.preventDefault)
		evt.preventDefault();

	evt.returnValue = false;

	var svgDoc = evt.target.ownerDocument;

	if(state == 'pan' || state == 'move') {
		// Quit pan mode
		state = '';
	}
}

]]></script>
<g id="viewport" transform="translate(0,0)">
<g id="viewport" class="graph" transform="scale(1 1) rotate(0) translate(4 2121)">
<title>../build/test/print_graph; 38 samples</title>
<polygon fill="#ffffff" stroke="transparent" points="-4,4 -4,-2121 788,-2121 788,4 -4,4"/>
<!-- Legend -->
<g id="node1" class="node">
<title>Legend</title>
<text text-anchor="start" x="8" y="-2093.8" font-family="Times,serif" font-size="24.00" fill="#000000">../build/test/print_graph</text>
<text text-anchor="start" x="8" y="-2067.8" font-family="Times,serif" font-size="24.00" fill="#000000">Total samples: 38</text>
<text text-anchor="start" x="8" y="-2041.8" font-family="Times,serif" font-size="24.00" fill="#000000">Focusing on: 15</text>
<text text-anchor="start" x="8" y="-2015.8" font-family="Times,serif" font-size="24.00" fill="#000000">Dropped nodes with &lt;= 0 abs(samples)</text>
<text text-anchor="start" x="8" y="-1989.8" font-family="Times,serif" font-size="24.00" fill="#000000">Dropped edges with &lt;= 0 samples</text>
</g>
<!-- N1 -->
<g id="node2" class="node">
<title>N1</title>
<polygon fill="none" stroke="#000000" points="488.5,-2065.5 409.5,-2065.5 409.5,-2030.5 488.5,-2030.5 488.5,-2065.5"/>
<text text-anchor="middle" x="449" y="-2055.1" font-family="Times,serif" font-size="8.00" fill="#000000">__libc_start_main</text>
<text text-anchor="end" x="480.5" y="-2046.1" font-family="Times,serif" font-size="8.00" fill="#000000">0 (0.0%)</text>
<text text-anchor="end" x="480.5" y="-2037.1" font-family="Times,serif" font-size="8.00" fill="#000000">of 15 (100.0%)</text>
</g>
<!-- N2 -->
<g id="node3" class="node">
<title>N2</title>
<polygon fill="none" stroke="#000000" points="484.5,-1928 413.5,-1928 413.5,-1893 484.5,-1893 484.5,-1928"/>
<text text-anchor="middle" x="449" y="-1917.6" font-family="Times,serif" font-size="8.00" fill="#000000">main</text>
<text text-anchor="end" x="476.5" y="-1908.6" font-family="Times,serif" font-size="8.00" fill="#000000">0 (0.0%)</text>
<text text-anchor="end" x="476.5" y="-1899.6" font-family="Times,serif" font-size="8.00" fill="#000000">of 15 (100.0%)</text>
</g>
<!-- N1&#45;&gt;N2 -->
<g id="edge1" class="edge">
<title>N1&#45;&gt;N2</title>
<path fill="none" stroke="#000000" stroke-width="2" d="M449,-2030.3058C449,-2006.998 449,-1965.7543 449,-1938.2699"/>
<polygon fill="#000000" stroke="#000000" stroke-width="2" points="452.5001,-1938.1263 449,-1928.1263 445.5001,-1938.1264 452.5001,-1938.1263"/>
<text text-anchor="middle" x="457" y="-1949.8" font-family="Times,serif" font-size="14.00" fill="#000000">15</text>
</g>
<!-- N5 -->
<g id="node6" class="node">
<title>N5</title>
<polygon fill="none" stroke="#000000" points="484,-1842 414,-1842 414,-1807 484,-1807 484,-1842"/>
<text text-anchor="middle" x="449" y="-1831.6" font-family="Times,serif" font-size="8.00" fill="#000000">annotate_edges</text>
<text text-anchor="end" x="476" y="-1822.6" font-family="Times,serif" font-size="8.00" fill="#000000">0 (0.0%)</text>
<text text-anchor="end" x="476" y="-1813.6" font-family="Times,serif" font-size="8.00" fill="#000000">of 10 (66.7%)</text>
</g>
<!-- N2&#45;&gt;N5 -->
<g id="edge3" class="edge">
<title>N2&#45;&gt;N5</title>
<path fill="none" stroke="#000000" stroke-width="2" d="M449,-1892.6807C449,-1880.9568 449,-1865.3768 449,-1852.0697"/>
<polygon fill="#000000" stroke="#000000" stroke-width="2" points="452.5001,-1852.0021 449,-1842.0022 445.5001,-1852.0022 452.5001,-1852.0021"/>
<text text-anchor="middle" x="457" y="-1863.8" font-family="Times,serif" font-size="14.00" fill="#000000">10</text>
</g>
<!-- N12 -->
<g id="node13" class="node">
<title>N12</title>
<polygon fill="none" stroke="#000000" points="412.5,-1656.5 307.5,-1656.5 307.5,-1621.5 412.5,-1621.5 412.5,-1656.5"/>
<text text-anchor="middle" x="360" y="-1646.1" font-family="Times,serif" font-size="8.00" fill="#000000">biconnected_components</text>
<text text-anchor="end" x="404.5" y="-1637.1" font-family="Times,serif" font-size="8.00" fill="#000000">0 (0.0%)</text>
<text text-anchor="end" x="404.5" y="-1628.1" font-family="Times,serif" font-size="8.00" fill="#000000">of 4 (26.7%)</text>
</g>
<!-- N2&#45;&gt;N12 -->
<g id="edge10" class="edge">
<title>N2&#45;&gt;N12</title>
<path fill="none" stroke="#000000" stroke-width="1.6" d="M435.1848,-1892.8696C425.4092,-1879.5781 412.7152,-1860.5287 405,-1842 380.1502,-1782.3212 368.0463,-1706.7993 363.0161,-1666.8037"/>
<polygon fill="#000000" stroke="#000000" stroke-width="1.6" points="366.4747,-1666.2492 361.8066,-1656.7382 359.5247,-1667.0844 366.4747,-1666.2492"/>
<text text-anchor="middle" x="391" y="-1777.8" font-family="Times,serif" font-size="14.00" fill="#000000">4</text>
</g>
<!-- N29 -->
<g id="node30" class="node">
<title>N29</title>
<polygon fill="none" stroke="#000000" points="562.5,-1842 505.5,-1842 505.5,-1807 562.5,-1807 562.5,-1842"/>
<text text-anchor="middle" x="534" y="-1831.6" font-family="Times,serif" font-size="8.00" fill="#000000">cutvertices</text>
<text text-anchor="end" x="554.5" y="-1822.6" font-family="Times,serif" font-size="8.00" fill="#000000">0 (0.0%)</text>
<text text-anchor="end" x="554.5" y="-1813.6" font-family="Times,serif" font-size="8.00" fill="#000000">of 1 (6.7%)</text>
</g>
<!-- N2&#45;&gt;N29 -->
<g id="edge22" class="edge">
<title>N2&#45;&gt;N29</title>
<path fill="none" stroke="#000000" d="M466.6121,-1892.6807C479.0028,-1880.1442 495.7514,-1863.1986 509.4511,-1849.3377"/>
<polygon fill="#000000" stroke="#000000" points="512.161,-1851.5749 516.7013,-1842.0022 507.1824,-1846.6541 512.161,-1851.5749"/>
<text text-anchor="middle" x="501" y="-1863.8" font-family="Times,serif" font-size="14.00" fill="#000000">1</text>
</g>
<!-- N3 -->
<g id="node4" class="node">
<title>N3</title>
<polygon fill="none" stroke="#000000" points="482,-1561.5 416,-1561.5 416,-1526.5 482,-1526.5 482,-1561.5"/>
<text text-anchor="middle" x="449" y="-1551.1" font-family="Times,serif" font-size="8.00" fill="#000000">dfs</text>
<text text-anchor="end" x="474" y="-1542.1" font-family="Times,serif" font-size="8.00" fill="#000000">0 (0.0%)</text>
<text text-anchor="end" x="474" y="-1533.1" font-family="Times,serif" font-size="8.00" fill="#000000">of 13 (86.7%)</text>
</g>
<!-- N4 -->
<g id="node5" class="node">
<title>N4</title>
<polygon fill="none" stroke="#000000" points="487,-1450 411,-1450 411,-1415 487,-1415 487,-1450"/>
<text text-anchor="middle" x="449" y="-1439.6" font-family="Times,serif" font-size="8.00" fill="#000000">dfs_base_parents</text>
<text text-anchor="end" x="479" y="-1430.6" font-family="Times,serif" font-size="8.00" fill="#000000">0 (0.0%)</text>
<text text-anchor="end" x="479" y="-1421.6" font-family="Times,serif" font-size="8.00" fill="#000000">of 13 (86.7%)</text>
</g>
<!-- N3&#45;&gt;N4 -->
<g id="edge2" class="edge">
<title>N3&#45;&gt;N4</title>
<path fill="none" stroke="#000000" stroke-width="2" d="M449,-1526.0856C449,-1508.2622 449,-1480.67 449,-1460.0568"/>
<polygon fill="#000000" stroke="#000000" stroke-width="2" points="452.5001,-1460.0023 449,-1450.0023 445.5001,-1460.0024 452.5001,-1460.0023"/>
<text text-anchor="middle" x="457" y="-1492.8" font-family="Times,serif" font-size="14.00" fill="#000000">13</text>
</g>
<!-- N7 -->
<g id="node8" class="node">
<title>N7</title>
<polygon fill="none" stroke="#000000" points="627.5,-917 542.5,-917 542.5,-873 627.5,-873 627.5,-917"/>
<text text-anchor="middle" x="585" y="-906.6" font-family="Times,serif" font-size="8.00" fill="#000000">SegmentedArray</text>
<text text-anchor="middle" x="585" y="-897.6" font-family="Times,serif" font-size="8.00" fill="#000000">select_segment_pos</text>
<text text-anchor="end" x="619.5" y="-888.6" font-family="Times,serif" font-size="8.00" fill="#000000">0 (0.0%)</text>
<text text-anchor="end" x="619.5" y="-879.6" font-family="Times,serif" font-size="8.00" fill="#000000">of 7 (46.7%)</text>
</g>
<!-- N4&#45;&gt;N7 -->
<g id="edge11" class="edge">
<title>N4&#45;&gt;N7</title>
<path fill="none" stroke="#000000" stroke-width="1.6" d="M466.2537,-1414.7362C474.5571,-1407.2016 485.0725,-1399.018 496,-1394 537.8337,-1374.7893 552.7916,-1384.6784 598,-1376 668.8785,-1362.3939 699.9178,-1387.1646 757,-1343 772.0917,-1331.3235 776,-1323.5814 776,-1304.5 776,-1304.5 776,-1304.5 776,-1072.5 776,-996.3866 693.6064,-943.685 637.0506,-916.4756"/>
<polygon fill="#000000" stroke="#000000" stroke-width="1.6" points="638.4042,-913.2447 627.8641,-912.1687 635.4327,-919.5827 638.4042,-913.2447"/>
<text text-anchor="middle" x="780" y="-1184.8" font-family="Times,serif" font-size="14.00" fill="#000000">4</text>
</g>
<!-- N11 -->
<g id="node12" class="node">
<title>N11</title>
<polygon fill="none" stroke="#000000" points="378,-1331 316,-1331 316,-1278 378,-1278 378,-1331"/>
<text text-anchor="middle" x="347" y="-1320.6" font-family="Times,serif" font-size="8.00" fill="#000000">std</text>
<text text-anchor="middle" x="347" y="-1311.6" font-family="Times,serif" font-size="8.00" fill="#000000">function</text>
<text text-anchor="middle" x="347" y="-1302.6" font-family="Times,serif" font-size="8.00" fill="#000000">operator</text>
<text text-anchor="end" x="370" y="-1293.6" font-family="Times,serif" font-size="8.00" fill="#000000">0 (0.0%)</text>
<text text-anchor="end" x="370" y="-1284.6" font-family="Times,serif" font-size="8.00" fill="#000000">of 6 (40.0%)</text>
</g>
<!-- N4&#45;&gt;N11 -->
<g id="edge7" class="edge">
<title>N4&#45;&gt;N11</title>
<path fill="none" stroke="#000000" stroke-width="2" d="M435.0312,-1414.9705C419.541,-1395.5318 394.1622,-1363.6839 374.6241,-1339.1656"/>
<polygon fill="#000000" stroke="#000000" stroke-width="2" points="377.2141,-1336.7996 368.2448,-1331.1602 371.7397,-1341.162 377.2141,-1336.7996"/>
<text text-anchor="middle" x="406" y="-1364.8" font-family="Times,serif" font-size="14.00" fill="#000000">6</text>
</g>
<!-- N23 -->
<g id="node24" class="node">
<title>N23</title>
<polygon fill="none" stroke="#000000" points="501.5,-1343 396.5,-1343 396.5,-1266 501.5,-1266 501.5,-1343"/>
<text text-anchor="middle" x="449" y="-1322.28" font-family="Times,serif" font-size="20.90" fill="#000000">RSBitmap</text>
<text text-anchor="middle" x="449" y="-1299.28" font-family="Times,serif" font-size="20.90" fill="#000000">get_n</text>
<text text-anchor="end" x="493.5" y="-1276.28" font-family="Times,serif" font-size="20.90" fill="#000000">1 (6.7%)</text>
</g>
<!-- N4&#45;&gt;N23 -->
<g id="edge29" class="edge">
<title>N4&#45;&gt;N23</title>
<path fill="none" stroke="#000000" d="M449,-1414.9705C449,-1399.0705 449,-1374.8681 449,-1353.1655"/>
<polygon fill="#000000" stroke="#000000" points="452.5001,-1353.0852 449,-1343.0853 445.5001,-1353.0853 452.5001,-1353.0852"/>
<text text-anchor="middle" x="453" y="-1364.8" font-family="Times,serif" font-size="14.00" fill="#000000">1</text>
</g>
<!-- N25 -->
<g id="node26" class="node">
<title>N25</title>
<polygon fill="none" stroke="#000000" points="624.5,-1343 519.5,-1343 519.5,-1266 624.5,-1266 624.5,-1343"/>
<text text-anchor="middle" x="572" y="-1322.28" font-family="Times,serif" font-size="20.90" fill="#000000">RSBitmap</text>
<text text-anchor="middle" x="572" y="-1299.28" font-family="Times,serif" font-size="20.90" fill="#000000">n</text>
<text text-anchor="end" x="616.5" y="-1276.28" font-family="Times,serif" font-size="20.90" fill="#000000">1 (6.7%)</text>
</g>
<!-- N4&#45;&gt;N25 -->
<g id="edge35" class="edge">
<title>N4&#45;&gt;N25</title>
<path fill="none" stroke="#000000" d="M465.8447,-1414.9705C481.7458,-1398.423 506.2881,-1372.8831 527.7707,-1350.5272"/>
<polygon fill="#000000" stroke="#000000" points="530.5168,-1352.7209 534.922,-1343.0853 525.4694,-1347.8707 530.5168,-1352.7209"/>
<text text-anchor="middle" x="519" y="-1364.8" font-family="Times,serif" font-size="14.00" fill="#000000">1</text>
</g>
<!-- N28 -->
<g id="node29" class="node">
<title>N28</title>
<polygon fill="none" stroke="#000000" points="747.5,-1343 642.5,-1343 642.5,-1266 747.5,-1266 747.5,-1343"/>
<text text-anchor="middle" x="695" y="-1322.28" font-family="Times,serif" font-size="20.90" fill="#000000">SFLGraph</text>
<text text-anchor="middle" x="695" y="-1299.28" font-family="Times,serif" font-size="20.90" fill="#000000">head</text>
<text text-anchor="end" x="739.5" y="-1276.28" font-family="Times,serif" font-size="20.90" fill="#000000">1 (6.7%)</text>
</g>
<!-- N4&#45;&gt;N28 -->
<g id="edge27" class="edge">
<title>N4&#45;&gt;N28</title>
<path fill="none" stroke="#000000" d="M467.6002,-1414.8432C475.8384,-1407.6859 485.9319,-1399.7667 496,-1394 550.0801,-1363.0248 573.1696,-1371.0566 633.3352,-1342.9963"/>
<polygon fill="#000000" stroke="#000000" points="634.9998,-1346.0794 642.4893,-1338.5854 631.9612,-1339.7732 634.9998,-1346.0794"/>
<text text-anchor="middle" x="590" y="-1364.8" font-family="Times,serif" font-size="14.00" fill="#000000">1</text>
</g>
<!-- N6 -->
<g id="node7" class="node">
<title>N6</title>
<polygon fill="none" stroke="#000000" points="482,-1751.5 416,-1751.5 416,-1716.5 482,-1716.5 482,-1751.5"/>
<text text-anchor="middle" x="449" y="-1741.1" font-family="Times,serif" font-size="8.00" fill="#000000">update_edges</text>
<text text-anchor="end" x="474" y="-1732.1" font-family="Times,serif" font-size="8.00" fill="#000000">0 (0.0%)</text>
<text text-anchor="end" x="474" y="-1723.1" font-family="Times,serif" font-size="8.00" fill="#000000">of 10 (66.7%)</text>
</g>
<!-- N5&#45;&gt;N6 -->
<g id="edge4" class="edge">
<title>N5&#45;&gt;N6</title>
<path fill="none" stroke="#000000" stroke-width="2" d="M449,-1806.6201C449,-1793.7701 449,-1776.2032 449,-1761.5659"/>
<polygon fill="#000000" stroke="#000000" stroke-width="2" points="452.5001,-1761.5348 449,-1751.5348 445.5001,-1761.5348 452.5001,-1761.5348"/>
<text text-anchor="middle" x="457" y="-1777.8" font-family="Times,serif" font-size="14.00" fill="#000000">10</text>
</g>
<!-- N6&#45;&gt;N3 -->
<g id="edge6" class="edge">
<title>N6&#45;&gt;N3</title>
<path fill="none" stroke="#000000" stroke-width="2" d="M449,-1716.4658C449,-1683.3941 449,-1611.567 449,-1571.8331"/>
<polygon fill="#000000" stroke="#000000" stroke-width="2" points="452.5001,-1571.768 449,-1561.768 445.5001,-1571.7681 452.5001,-1571.768"/>
<text text-anchor="middle" x="453" y="-1635.3" font-family="Times,serif" font-size="14.00" fill="#000000">6</text>
</g>
<!-- N13 -->
<g id="node14" class="node">
<title>N13</title>
<polygon fill="none" stroke="#000000" points="537,-1656.5 475,-1656.5 475,-1621.5 537,-1621.5 537,-1656.5"/>
<text text-anchor="middle" x="506" y="-1646.1" font-family="Times,serif" font-size="8.00" fill="#000000">mark_edges</text>
<text text-anchor="end" x="529" y="-1637.1" font-family="Times,serif" font-size="8.00" fill="#000000">0 (0.0%)</text>
<text text-anchor="end" x="529" y="-1628.1" font-family="Times,serif" font-size="8.00" fill="#000000">of 4 (26.7%)</text>
</g>
<!-- N6&#45;&gt;N13 -->
<g id="edge12" class="edge">
<title>N6&#45;&gt;N13</title>
<path fill="none" stroke="#000000" stroke-width="1.6" d="M459.7213,-1716.1312C468.24,-1701.9333 480.2873,-1681.8545 489.9546,-1665.7424"/>
<polygon fill="#000000" stroke="#000000" stroke-width="1.6" points="493.183,-1667.1643 495.3268,-1656.7886 487.1806,-1663.5628 493.183,-1667.1643"/>
<text text-anchor="middle" x="485" y="-1682.8" font-family="Times,serif" font-size="14.00" fill="#000000">4</text>
</g>
<!-- N9 -->
<g id="node10" class="node">
<title>N9</title>
<polygon fill="none" stroke="#000000" points="621,-794 463,-794 463,-694 621,-694 621,-794"/>
<text text-anchor="middle" x="542" y="-773.28" font-family="Times,serif" font-size="20.90" fill="#000000">SegmentedArray</text>
<text text-anchor="middle" x="542" y="-750.28" font-family="Times,serif" font-size="20.90" fill="#000000">get_pos</text>
<text text-anchor="end" x="613" y="-727.28" font-family="Times,serif" font-size="20.90" fill="#000000">1 (6.7%)</text>
<text text-anchor="end" x="613" y="-704.28" font-family="Times,serif" font-size="20.90" fill="#000000">of 6 (40.0%)</text>
</g>
<!-- N7&#45;&gt;N9 -->
<g id="edge8" class="edge">
<title>N7&#45;&gt;N9</title>
<path fill="none" stroke="#000000" stroke-width="2" d="M578.6552,-872.7194C573.5015,-854.6215 565.9839,-828.2227 559.0963,-804.036"/>
<polygon fill="#000000" stroke="#000000" stroke-width="2" points="562.3982,-802.8513 556.2932,-794.1923 555.6659,-804.7686 562.3982,-802.8513"/>
<text text-anchor="middle" x="569" y="-815.8" font-family="Times,serif" font-size="14.00" fill="#000000">5</text>
</g>
<!-- N17 -->
<g id="node18" class="node">
<title>N17</title>
<polygon fill="none" stroke="#000000" points="713.5,-766 638.5,-766 638.5,-722 713.5,-722 713.5,-766"/>
<text text-anchor="middle" x="676" y="-755.6" font-family="Times,serif" font-size="8.00" fill="#000000">SegmentedArray</text>
<text text-anchor="middle" x="676" y="-746.6" font-family="Times,serif" font-size="8.00" fill="#000000">select_array_pos</text>
<text text-anchor="end" x="705.5" y="-737.6" font-family="Times,serif" font-size="8.00" fill="#000000">0 (0.0%)</text>
<text text-anchor="end" x="705.5" y="-728.6" font-family="Times,serif" font-size="8.00" fill="#000000">of 2 (13.3%)</text>
</g>
<!-- N7&#45;&gt;N17 -->
<g id="edge19" class="edge">
<title>N7&#45;&gt;N17</title>
<path fill="none" stroke="#000000" d="M598.4274,-872.7194C613.9522,-846.9584 639.613,-804.3785 657.137,-775.3001"/>
<polygon fill="#000000" stroke="#000000" points="660.3536,-776.7435 662.5175,-766.372 654.3581,-773.1303 660.3536,-776.7435"/>
<text text-anchor="middle" x="637" y="-815.8" font-family="Times,serif" font-size="14.00" fill="#000000">2</text>
</g>
<!-- N8 -->
<g id="node9" class="node">
<title>N8</title>
<polygon fill="none" stroke="#000000" points="603.5,-420 428.5,-420 428.5,-280 603.5,-280 603.5,-420"/>
<text text-anchor="middle" x="516" y="-391.68" font-family="Times,serif" font-size="30.40" fill="#000000">RSBitmap</text>
<text text-anchor="middle" x="516" y="-358.68" font-family="Times,serif" font-size="30.40" fill="#000000">select</text>
<text text-anchor="end" x="595.5" y="-325.68" font-family="Times,serif" font-size="30.40" fill="#000000">3 (20.0%)</text>
<text text-anchor="end" x="595.5" y="-292.68" font-family="Times,serif" font-size="30.40" fill="#000000">of 6 (40.0%)</text>
</g>
<!-- N16 -->
<g id="node17" class="node">
<title>N16</title>
<polygon fill="none" stroke="#000000" points="592.5,-229 439.5,-229 439.5,-105 592.5,-105 592.5,-229"/>
<text text-anchor="middle" x="516" y="-203.96" font-family="Times,serif" font-size="26.30" fill="#000000">rank9sel</text>
<text text-anchor="middle" x="516" y="-174.96" font-family="Times,serif" font-size="26.30" fill="#000000">select</text>
<text text-anchor="end" x="584.5" y="-145.96" font-family="Times,serif" font-size="26.30" fill="#000000">2 (13.3%)</text>
<text text-anchor="end" x="584.5" y="-116.96" font-family="Times,serif" font-size="26.30" fill="#000000">of 3 (20.0%)</text>
</g>
<!-- N8&#45;&gt;N16 -->
<g id="edge13" class="edge">
<title>N8&#45;&gt;N16</title>
<path fill="none" stroke="#000000" stroke-width="1.2" d="M516,-279.7708C516,-266.5178 516,-252.6346 516,-239.3189"/>
<polygon fill="#000000" stroke="#000000" stroke-width="1.2" points="519.5001,-239.2667 516,-229.2667 512.5001,-239.2667 519.5001,-239.2667"/>
<text text-anchor="middle" x="520" y="-250.8" font-family="Times,serif" font-size="14.00" fill="#000000">3</text>
</g>
<!-- N9&#45;&gt;N8 -->
<g id="edge15" class="edge">
<title>N9&#45;&gt;N8</title>
<path fill="none" stroke="#000000" stroke-width="1.2" d="M538.6807,-693.6994C534.2981,-627.2872 526.5293,-509.559 521.322,-430.6482"/>
<polygon fill="#000000" stroke="#000000" stroke-width="1.2" points="524.7876,-430.0101 520.6366,-420.2623 517.8027,-430.4711 524.7876,-430.0101"/>
<text text-anchor="middle" x="536" y="-569.8" font-family="Times,serif" font-size="14.00" fill="#000000">3</text>
</g>
<!-- N14 -->
<g id="node15" class="node">
<title>N14</title>
<polygon fill="none" stroke="#000000" points="624,-531.5 562,-531.5 562,-487.5 624,-487.5 624,-531.5"/>
<text text-anchor="middle" x="593" y="-521.1" font-family="Times,serif" font-size="8.00" fill="#000000">RSBitmap</text>
<text text-anchor="middle" x="593" y="-512.1" font-family="Times,serif" font-size="8.00" fill="#000000">next_one</text>
<text text-anchor="end" x="616" y="-503.1" font-family="Times,serif" font-size="8.00" fill="#000000">0 (0.0%)</text>
<text text-anchor="end" x="616" y="-494.1" font-family="Times,serif" font-size="8.00" fill="#000000">of 3 (20.0%)</text>
</g>
<!-- N9&#45;&gt;N14 -->
<g id="edge18" class="edge">
<title>N9&#45;&gt;N14</title>
<path fill="none" stroke="#000000" d="M551.4628,-693.8922C556.8873,-665.9095 563.9937,-630.4475 571,-599 575.2646,-579.8584 580.4884,-558.5309 584.7755,-541.498"/>
<polygon fill="#000000" stroke="#000000" points="588.2439,-542.0588 587.3068,-531.5055 581.4582,-540.3398 588.2439,-542.0588"/>
<text text-anchor="middle" x="575" y="-617.3" font-family="Times,serif" font-size="14.00" fill="#000000">2</text>
</g>
<!-- N10 -->
<g id="node11" class="node">
<title>N10</title>
<polygon fill="none" stroke="#000000" points="440.5,-1215 357.5,-1215 357.5,-1162 440.5,-1162 440.5,-1215"/>
<text text-anchor="middle" x="399" y="-1204.6" font-family="Times,serif" font-size="8.00" fill="#000000">std</text>
<text text-anchor="middle" x="399" y="-1195.6" font-family="Times,serif" font-size="8.00" fill="#000000">_Function_handler</text>
<text text-anchor="middle" x="399" y="-1186.6" font-family="Times,serif" font-size="8.00" fill="#000000">_M_invoke</text>
<text text-anchor="end" x="432.5" y="-1177.6" font-family="Times,serif" font-size="8.00" fill="#000000">0 (0.0%)</text>
<text text-anchor="end" x="432.5" y="-1168.6" font-family="Times,serif" font-size="8.00" fill="#000000">of 6 (40.0%)</text>
</g>
<!-- N15 -->
<g id="node16" class="node">
<title>N15</title>
<polygon fill="none" stroke="#000000" points="613,-1099 551,-1099 551,-1046 613,-1046 613,-1099"/>
<text text-anchor="middle" x="582" y="-1088.6" font-family="Times,serif" font-size="8.00" fill="#000000">mark_edges</text>
<text text-anchor="middle" x="582" y="-1079.6" font-family="Times,serif" font-size="8.00" fill="#000000">{lambda#1}</text>
<text text-anchor="middle" x="582" y="-1070.6" font-family="Times,serif" font-size="8.00" fill="#000000">operator</text>
<text text-anchor="end" x="605" y="-1061.6" font-family="Times,serif" font-size="8.00" fill="#000000">0 (0.0%)</text>
<text text-anchor="end" x="605" y="-1052.6" font-family="Times,serif" font-size="8.00" fill="#000000">of 3 (20.0%)</text>
</g>
<!-- N10&#45;&gt;N15 -->
<g id="edge17" class="edge">
<title>N10&#45;&gt;N15</title>
<path fill="none" stroke="#000000" stroke-width="1.2" d="M440.7271,-1181.1717C468.1084,-1174.8017 503.5993,-1163.4412 530,-1144 542.9542,-1134.4607 554.0175,-1120.7472 562.5668,-1107.8767"/>
<polygon fill="#000000" stroke="#000000" stroke-width="1.2" points="565.6906,-1109.4854 568.0763,-1099.1626 559.7739,-1105.7445 565.6906,-1109.4854"/>
<text text-anchor="middle" x="550" y="-1132.8" font-family="Times,serif" font-size="14.00" fill="#000000">3</text>
</g>
<!-- N33 -->
<g id="node34" class="node">
<title>N33</title>
<polygon fill="none" stroke="#000000" points="382.5,-1103.5 309.5,-1103.5 309.5,-1041.5 382.5,-1041.5 382.5,-1103.5"/>
<text text-anchor="middle" x="346" y="-1093.1" font-family="Times,serif" font-size="8.00" fill="#000000">std</text>
<text text-anchor="middle" x="346" y="-1084.1" font-family="Times,serif" font-size="8.00" fill="#000000">_Function_base</text>
<text text-anchor="middle" x="346" y="-1075.1" font-family="Times,serif" font-size="8.00" fill="#000000">_Base_manager</text>
<text text-anchor="middle" x="346" y="-1066.1" font-family="Times,serif" font-size="8.00" fill="#000000">_M_get_pointer</text>
<text text-anchor="end" x="374.5" y="-1057.1" font-family="Times,serif" font-size="8.00" fill="#000000">0 (0.0%)</text>
<text text-anchor="end" x="374.5" y="-1048.1" font-family="Times,serif" font-size="8.00" fill="#000000">of 1 (6.7%)</text>
</g>
<!-- N10&#45;&gt;N33 -->
<g id="edge24" class="edge">
<title>N10&#45;&gt;N33</title>
<path fill="none" stroke="#000000" d="M386.8407,-1161.8873C380.1984,-1147.3494 371.8359,-1129.0465 364.4106,-1112.795"/>
<polygon fill="#000000" stroke="#000000" points="367.5064,-1111.1483 360.1671,-1103.5073 361.1395,-1114.0574 367.5064,-1111.1483"/>
<text text-anchor="middle" x="382" y="-1132.8" font-family="Times,serif" font-size="14.00" fill="#000000">1</text>
</g>
<!-- N34 -->
<g id="node35" class="node">
<title>N34</title>
<polygon fill="none" stroke="#000000" points="489.5,-1111 400.5,-1111 400.5,-1034 489.5,-1034 489.5,-1111"/>
<text text-anchor="middle" x="445" y="-1090.28" font-family="Times,serif" font-size="20.90" fill="#000000">std</text>
<text text-anchor="middle" x="445" y="-1067.28" font-family="Times,serif" font-size="20.90" fill="#000000">forward</text>
<text text-anchor="end" x="481.5" y="-1044.28" font-family="Times,serif" font-size="20.90" fill="#000000">1 (6.7%)</text>
</g>
<!-- N10&#45;&gt;N34 -->
<g id="edge30" class="edge">
<title>N10&#45;&gt;N34</title>
<path fill="none" stroke="#000000" d="M409.5533,-1161.8873C414.3809,-1149.7135 420.2553,-1134.8997 425.8224,-1120.861"/>
<polygon fill="#000000" stroke="#000000" points="429.1779,-1121.8938 429.6107,-1111.3078 422.6709,-1119.3133 429.1779,-1121.8938"/>
<text text-anchor="middle" x="426" y="-1132.8" font-family="Times,serif" font-size="14.00" fill="#000000">1</text>
</g>
<!-- N35 -->
<g id="node36" class="node">
<title>N35</title>
<polygon fill="none" stroke="#000000" points="549,-1016 485,-1016 485,-963 549,-963 549,-1016"/>
<text text-anchor="middle" x="517" y="-1005.6" font-family="Times,serif" font-size="8.00" fill="#000000">update_edges</text>
<text text-anchor="middle" x="517" y="-996.6" font-family="Times,serif" font-size="8.00" fill="#000000">{lambda#2}</text>
<text text-anchor="middle" x="517" y="-987.6" font-family="Times,serif" font-size="8.00" fill="#000000">operator</text>
<text text-anchor="end" x="541" y="-978.6" font-family="Times,serif" font-size="8.00" fill="#000000">0 (0.0%)</text>
<text text-anchor="end" x="541" y="-969.6" font-family="Times,serif" font-size="8.00" fill="#000000">of 1 (6.7%)</text>
</g>
<!-- N10&#45;&gt;N35 -->
<g id="edge37" class="edge">
<title>N10&#45;&gt;N35</title>
<path fill="none" stroke="#000000" d="M440.6442,-1166.0661C461.2122,-1152.7952 484.4626,-1134.0587 498,-1111 513.0383,-1085.3848 517.3428,-1051.7266 518.1388,-1026.3329"/>
<polygon fill="#000000" stroke="#000000" points="521.643,-1026.0523 518.2861,-1016.0033 514.6437,-1025.9523 521.643,-1026.0523"/>
<text text-anchor="middle" x="488" y="-1132.8" font-family="Times,serif" font-size="14.00" fill="#000000">1</text>
</g>
<!-- N11&#45;&gt;N10 -->
<g id="edge5" class="edge">
<title>N11&#45;&gt;N10</title>
<path fill="none" stroke="#000000" stroke-width="2" d="M358.9299,-1277.8873C366.0137,-1262.0847 375.0917,-1241.8338 382.8153,-1224.6043"/>
<polygon fill="#000000" stroke="#000000" stroke-width="2" points="386.0488,-1225.9474 386.9456,-1215.3906 379.6612,-1223.084 386.0488,-1225.9474"/>
<text text-anchor="middle" x="382" y="-1236.8" font-family="Times,serif" font-size="14.00" fill="#000000">6</text>
</g>
<!-- N12&#45;&gt;N3 -->
<g id="edge16" class="edge">
<title>N12&#45;&gt;N3</title>
<path fill="none" stroke="#000000" stroke-width="1.2" d="M376.7402,-1621.1312C390.4144,-1606.5352 409.9112,-1585.724 425.2073,-1569.3968"/>
<polygon fill="#000000" stroke="#000000" stroke-width="1.2" points="428.0522,-1571.4794 432.3348,-1561.7886 422.9437,-1566.6935 428.0522,-1571.4794"/>
<text text-anchor="middle" x="414" y="-1587.8" font-family="Times,serif" font-size="14.00" fill="#000000">3</text>
</g>
<!-- N12&#45;&gt;N8 -->
<g id="edge26" class="edge">
<title>N12&#45;&gt;N8</title>
<path fill="none" stroke="#000000" d="M333.0691,-1621.3447C310.8646,-1604.4319 283,-1576.6947 283,-1544 283,-1544 283,-1544 283,-509.5 283,-439.9079 354.6511,-398.4504 418.4863,-375.3246"/>
<polygon fill="#000000" stroke="#000000" points="419.9638,-378.5157 428.2447,-371.9067 417.6499,-371.9092 419.9638,-378.5157"/>
<text text-anchor="middle" x="287" y="-1068.8" font-family="Times,serif" font-size="14.00" fill="#000000">1</text>
</g>
<!-- N13&#45;&gt;N3 -->
<g id="edge9" class="edge">
<title>N13&#45;&gt;N3</title>
<path fill="none" stroke="#000000" stroke-width="1.6" d="M495.2787,-1621.1312C486.76,-1606.9333 474.7127,-1586.8545 465.0454,-1570.7424"/>
<polygon fill="#000000" stroke="#000000" stroke-width="1.6" points="467.8194,-1568.5628 459.6732,-1561.7886 461.817,-1572.1643 467.8194,-1568.5628"/>
<text text-anchor="middle" x="485" y="-1587.8" font-family="Times,serif" font-size="14.00" fill="#000000">4</text>
</g>
<!-- N14&#45;&gt;N8 -->
<g id="edge20" class="edge">
<title>N14&#45;&gt;N8</title>
<path fill="none" stroke="#000000" d="M582.2935,-487.3222C574.9173,-472.0429 564.6266,-450.7266 554.3502,-429.4397"/>
<polygon fill="#000000" stroke="#000000" points="557.4549,-427.8201 549.9554,-420.3362 551.151,-430.8634 557.4549,-427.8201"/>
<text text-anchor="middle" x="568" y="-441.8" font-family="Times,serif" font-size="14.00" fill="#000000">2</text>
</g>
<!-- N26 -->
<g id="node27" class="node">
<title>N26</title>
<polygon fill="none" stroke="#000000" points="681.5,-372 624.5,-372 624.5,-328 681.5,-328 681.5,-372"/>
<text text-anchor="middle" x="653" y="-361.6" font-family="Times,serif" font-size="8.00" fill="#000000">RSBitmap</text>
<text text-anchor="middle" x="653" y="-352.6" font-family="Times,serif" font-size="8.00" fill="#000000">rank</text>
<text text-anchor="end" x="673.5" y="-343.6" font-family="Times,serif" font-size="8.00" fill="#000000">0 (0.0%)</text>
<text text-anchor="end" x="673.5" y="-334.6" font-family="Times,serif" font-size="8.00" fill="#000000">of 1 (6.7%)</text>
</g>
<!-- N14&#45;&gt;N26 -->
<g id="edge25" class="edge">
<title>N14&#45;&gt;N26</title>
<path fill="none" stroke="#000000" d="M601.3427,-487.3222C611.6574,-459.9024 629.2859,-413.04 641.0389,-381.7967"/>
<polygon fill="#000000" stroke="#000000" points="644.3866,-382.838 644.6316,-372.246 637.8348,-380.3733 644.3866,-382.838"/>
<text text-anchor="middle" x="623" y="-441.8" font-family="Times,serif" font-size="14.00" fill="#000000">1</text>
</g>
<!-- N15&#45;&gt;N7 -->
<g id="edge14" class="edge">
<title>N15&#45;&gt;N7</title>
<path fill="none" stroke="#000000" stroke-width="1.2" d="M582.4491,-1045.9265C582.9831,-1014.3356 583.874,-961.6229 584.4491,-927.5975"/>
<polygon fill="#000000" stroke="#000000" stroke-width="1.2" points="587.9542,-927.3151 584.6238,-917.2573 580.9552,-927.1967 587.9542,-927.3151"/>
<text text-anchor="middle" x="587" y="-985.8" font-family="Times,serif" font-size="14.00" fill="#000000">3</text>
</g>
<!-- N31 -->
<g id="node32" class="node">
<title>N31</title>
<polygon fill="none" stroke="#000000" points="588,-54 444,-54 444,0 588,0 588,-54"/>
<text text-anchor="middle" x="516" y="-33.28" font-family="Times,serif" font-size="20.90" fill="#000000">select_in_word</text>
<text text-anchor="end" x="580" y="-10.28" font-family="Times,serif" font-size="20.90" fill="#000000">1 (6.7%)</text>
</g>
<!-- N16&#45;&gt;N31 -->
<g id="edge34" class="edge">
<title>N16&#45;&gt;N31</title>
<path fill="none" stroke="#000000" d="M516,-104.7787C516,-91.1098 516,-77.0403 516,-64.6899"/>
<polygon fill="#000000" stroke="#000000" points="519.5001,-64.3322 516,-54.3323 512.5001,-64.3323 519.5001,-64.3322"/>
<text text-anchor="middle" x="520" y="-75.8" font-family="Times,serif" font-size="14.00" fill="#000000">1</text>
</g>
<!-- N20 -->
<g id="node21" class="node">
<title>N20</title>
<polygon fill="none" stroke="#000000" points="662,-643 588,-643 588,-599 662,-599 662,-643"/>
<text text-anchor="middle" x="625" y="-632.6" font-family="Times,serif" font-size="8.00" fill="#000000">ConstTimeArray</text>
<text text-anchor="middle" x="625" y="-623.6" font-family="Times,serif" font-size="8.00" fill="#000000">next_one</text>
<text text-anchor="end" x="654" y="-614.6" font-family="Times,serif" font-size="8.00" fill="#000000">0 (0.0%)</text>
<text text-anchor="end" x="654" y="-605.6" font-family="Times,serif" font-size="8.00" fill="#000000">of 1 (6.7%)</text>
</g>
<!-- N17&#45;&gt;N20 -->
<g id="edge39" class="edge">
<title>N17&#45;&gt;N20</title>
<path fill="none" stroke="#000000" d="M666.7643,-721.7256C658.7489,-702.3945 647.0541,-674.1893 638.0773,-652.5393"/>
<polygon fill="#000000" stroke="#000000" points="641.2303,-651.0055 634.167,-643.1087 634.7641,-653.6867 641.2303,-651.0055"/>
<text text-anchor="middle" x="651" y="-664.8" font-family="Times,serif" font-size="14.00" fill="#000000">1</text>
</g>
<!-- N22 -->
<g id="node23" class="node">
<title>N22</title>
<polygon fill="none" stroke="#000000" points="737.5,-643 680.5,-643 680.5,-599 737.5,-599 737.5,-643"/>
<text text-anchor="middle" x="709" y="-632.6" font-family="Times,serif" font-size="8.00" fill="#000000">RSBitmap</text>
<text text-anchor="middle" x="709" y="-623.6" font-family="Times,serif" font-size="8.00" fill="#000000">get</text>
<text text-anchor="end" x="729.5" y="-614.6" font-family="Times,serif" font-size="8.00" fill="#000000">0 (0.0%)</text>
<text text-anchor="end" x="729.5" y="-605.6" font-family="Times,serif" font-size="8.00" fill="#000000">of 1 (6.7%)</text>
</g>
<!-- N17&#45;&gt;N22 -->
<g id="edge40" class="edge">
<title>N17&#45;&gt;N22</title>
<path fill="none" stroke="#000000" d="M681.9761,-721.7256C687.1391,-702.4816 694.6616,-674.4432 700.4596,-652.8322"/>
<polygon fill="#000000" stroke="#000000" points="703.8575,-653.6741 703.0684,-643.1087 697.0966,-651.8601 703.8575,-653.6741"/>
<text text-anchor="middle" x="701" y="-664.8" font-family="Times,serif" font-size="14.00" fill="#000000">1</text>
</g>
<!-- N18 -->
<g id="node19" class="node">
<title>N18</title>
<polygon fill="none" stroke="#000000" points="621,-1566 547,-1566 547,-1522 621,-1522 621,-1566"/>
<text text-anchor="middle" x="584" y="-1555.6" font-family="Times,serif" font-size="8.00" fill="#000000">ConstTimeArray</text>
<text text-anchor="middle" x="584" y="-1546.6" font-family="Times,serif" font-size="8.00" fill="#000000">is_init</text>
<text text-anchor="end" x="613" y="-1537.6" font-family="Times,serif" font-size="8.00" fill="#000000">0 (0.0%)</text>
<text text-anchor="end" x="613" y="-1528.6" font-family="Times,serif" font-size="8.00" fill="#000000">of 1 (6.7%)</text>
</g>
<!-- N19 -->
<g id="node20" class="node">
<title>N19</title>
<polygon fill="none" stroke="#000000" points="663,-1471 505,-1471 505,-1394 663,-1394 663,-1471"/>
<text text-anchor="middle" x="584" y="-1450.28" font-family="Times,serif" font-size="20.90" fill="#000000">ConstTimeArray</text>
<text text-anchor="middle" x="584" y="-1427.28" font-family="Times,serif" font-size="20.90" fill="#000000">n</text>
<text text-anchor="end" x="655" y="-1404.28" font-family="Times,serif" font-size="20.90" fill="#000000">1 (6.7%)</text>
</g>
<!-- N18&#45;&gt;N19 -->
<g id="edge32" class="edge">
<title>N18&#45;&gt;N19</title>
<path fill="none" stroke="#000000" d="M584,-1521.9712C584,-1510.3272 584,-1495.5395 584,-1481.3564"/>
<polygon fill="#000000" stroke="#000000" points="587.5001,-1481.1892 584,-1471.1893 580.5001,-1481.1893 587.5001,-1481.1892"/>
<text text-anchor="middle" x="588" y="-1492.8" font-family="Times,serif" font-size="14.00" fill="#000000">1</text>
</g>
<!-- N20&#45;&gt;N14 -->
<g id="edge38" class="edge">
<title>N20&#45;&gt;N14</title>
<path fill="none" stroke="#000000" d="M618.6778,-598.9712C613.9751,-582.5851 607.4856,-559.9734 602.2073,-541.5818"/>
<polygon fill="#000000" stroke="#000000" points="605.5414,-540.5111 599.4186,-531.8647 598.813,-542.4422 605.5414,-540.5111"/>
<text text-anchor="middle" x="616" y="-569.8" font-family="Times,serif" font-size="14.00" fill="#000000">1</text>
</g>
<!-- N21 -->
<g id="node22" class="node">
<title>N21</title>
<polygon fill="none" stroke="#000000" points="612.5,-1661 555.5,-1661 555.5,-1617 612.5,-1617 612.5,-1661"/>
<text text-anchor="middle" x="584" y="-1650.6" font-family="Times,serif" font-size="8.00" fill="#000000">RSBitmap</text>
<text text-anchor="middle" x="584" y="-1641.6" font-family="Times,serif" font-size="8.00" fill="#000000">_init_slate</text>
<text text-anchor="end" x="604.5" y="-1632.6" font-family="Times,serif" font-size="8.00" fill="#000000">0 (0.0%)</text>
<text text-anchor="end" x="604.5" y="-1623.6" font-family="Times,serif" font-size="8.00" fill="#000000">of 1 (6.7%)</text>
</g>
<!-- N21&#45;&gt;N18 -->
<g id="edge31" class="edge">
<title>N21&#45;&gt;N18</title>
<path fill="none" stroke="#000000" d="M584,-1616.9663C584,-1604.9427 584,-1589.8283 584,-1576.4785"/>
<polygon fill="#000000" stroke="#000000" points="587.5001,-1576.2433 584,-1566.2433 580.5001,-1576.2433 587.5001,-1576.2433"/>
<text text-anchor="middle" x="588" y="-1587.8" font-family="Times,serif" font-size="14.00" fill="#000000">1</text>
</g>
<!-- N24 -->
<g id="node25" class="node">
<title>N24</title>
<polygon fill="none" stroke="#000000" points="764,-548 654,-548 654,-471 764,-471 764,-548"/>
<text text-anchor="middle" x="709" y="-527.28" font-family="Times,serif" font-size="20.90" fill="#000000">RSBitmap</text>
<text text-anchor="middle" x="709" y="-504.28" font-family="Times,serif" font-size="20.90" fill="#000000">is_pos_init</text>
<text text-anchor="end" x="756" y="-481.28" font-family="Times,serif" font-size="20.90" fill="#000000">1 (6.7%)</text>
</g>
<!-- N22&#45;&gt;N24 -->
<g id="edge23" class="edge">
<title>N22&#45;&gt;N24</title>
<path fill="none" stroke="#000000" d="M709,-598.9712C709,-587.3272 709,-572.5395 709,-558.3564"/>
<polygon fill="#000000" stroke="#000000" points="712.5001,-558.1892 709,-548.1893 705.5001,-558.1893 712.5001,-558.1892"/>
<text text-anchor="middle" x="713" y="-569.8" font-family="Times,serif" font-size="14.00" fill="#000000">1</text>
</g>
<!-- N30 -->
<g id="node31" class="node">
<title>N30</title>
<polygon fill="none" stroke="#000000" points="699.5,-205.5 610.5,-205.5 610.5,-128.5 699.5,-128.5 699.5,-205.5"/>
<text text-anchor="middle" x="655" y="-184.78" font-family="Times,serif" font-size="20.90" fill="#000000">rank9sel</text>
<text text-anchor="middle" x="655" y="-161.78" font-family="Times,serif" font-size="20.90" fill="#000000">rank</text>
<text text-anchor="end" x="691.5" y="-138.78" font-family="Times,serif" font-size="20.90" fill="#000000">1 (6.7%)</text>
</g>
<!-- N26&#45;&gt;N30 -->
<g id="edge21" class="edge">
<title>N26&#45;&gt;N30</title>
<path fill="none" stroke="#000000" d="M653.2412,-327.9259C653.5419,-300.4118 654.0647,-252.5799 654.4624,-216.1936"/>
<polygon fill="#000000" stroke="#000000" points="657.9666,-215.8211 654.5761,-205.7834 650.967,-215.7445 657.9666,-215.8211"/>
<text text-anchor="middle" x="658" y="-250.8" font-family="Times,serif" font-size="14.00" fill="#000000">1</text>
</g>
<!-- N27 -->
<g id="node28" class="node">
<title>N27</title>
<polygon fill="none" stroke="#000000" points="569.5,-1756 512.5,-1756 512.5,-1712 569.5,-1712 569.5,-1756"/>
<text text-anchor="middle" x="541" y="-1745.6" font-family="Times,serif" font-size="8.00" fill="#000000">RSBitmap</text>
<text text-anchor="middle" x="541" y="-1736.6" font-family="Times,serif" font-size="8.00" fill="#000000">set</text>
<text text-anchor="end" x="561.5" y="-1727.6" font-family="Times,serif" font-size="8.00" fill="#000000">0 (0.0%)</text>
<text text-anchor="end" x="561.5" y="-1718.6" font-family="Times,serif" font-size="8.00" fill="#000000">of 1 (6.7%)</text>
</g>
<!-- N27&#45;&gt;N21 -->
<g id="edge41" class="edge">
<title>N27&#45;&gt;N21</title>
<path fill="none" stroke="#000000" d="M550.9731,-1711.9663C556.5232,-1699.7046 563.5282,-1684.2285 569.6572,-1670.6875"/>
<polygon fill="#000000" stroke="#000000" points="572.9969,-1671.7968 573.932,-1661.2433 566.6198,-1668.9102 572.9969,-1671.7968"/>
<text text-anchor="middle" x="570" y="-1682.8" font-family="Times,serif" font-size="14.00" fill="#000000">1</text>
</g>
<!-- N29&#45;&gt;N27 -->
<g id="edge28" class="edge">
<title>N29&#45;&gt;N27</title>
<path fill="none" stroke="#000000" d="M535.383,-1806.6201C536.2783,-1795.0443 537.4698,-1779.6405 538.5249,-1765.9989"/>
<polygon fill="#000000" stroke="#000000" points="542.0164,-1766.2434 539.2981,-1756.0032 535.0372,-1765.7035 542.0164,-1766.2434"/>
<text text-anchor="middle" x="542" y="-1777.8" font-family="Times,serif" font-size="14.00" fill="#000000">1</text>
</g>
<!-- N32 -->
<g id="node33" class="node">
<title>N32</title>
<polygon fill="none" stroke="#000000" points="420.5,-945 311.5,-945 311.5,-845 420.5,-845 420.5,-945"/>
<text text-anchor="middle" x="366" y="-924.28" font-family="Times,serif" font-size="20.90" fill="#000000">std</text>
<text text-anchor="middle" x="366" y="-901.28" font-family="Times,serif" font-size="20.90" fill="#000000">_Any_data</text>
<text text-anchor="middle" x="366" y="-878.28" font-family="Times,serif" font-size="20.90" fill="#000000">_M_access</text>
<text text-anchor="end" x="412.5" y="-855.28" font-family="Times,serif" font-size="20.90" fill="#000000">1 (6.7%)</text>
</g>
<!-- N33&#45;&gt;N32 -->
<g id="edge36" class="edge">
<title>N33&#45;&gt;N32</title>
<path fill="none" stroke="#000000" d="M349.5296,-1041.1752C352.2079,-1017.4046 355.9716,-984.0025 359.2251,-955.1273"/>
<polygon fill="#000000" stroke="#000000" points="362.7102,-955.4549 360.352,-945.1258 355.7543,-954.671 362.7102,-955.4549"/>
<text text-anchor="middle" x="362" y="-985.8" font-family="Times,serif" font-size="14.00" fill="#000000">1</text>
</g>
<!-- N35&#45;&gt;N9 -->
<g id="edge33" class="edge">
<title>N35&#45;&gt;N9</title>
<path fill="none" stroke="#000000" d="M517.588,-962.7935C518.4352,-933.7368 520.4343,-885.9516 525,-845 526.4758,-831.7627 528.5435,-817.6246 530.7302,-804.2463"/>
<polygon fill="#000000" stroke="#000000" points="534.2142,-804.6329 532.4178,-794.1915 527.3108,-803.4742 534.2142,-804.6329"/>
<text text-anchor="middle" x="529" y="-891.3" font-family="Times,serif" font-size="14.00" fill="#000000">1</text>
</g>
</g>
</g></svg>
