<?xml version="1.0" encoding="UTF-8" standalone="no"?>
<!DOCTYPE svg PUBLIC "-//W3C//DTD SVG 1.1//EN"
 "http://www.w3.org/Graphics/SVG/1.1/DTD/svg11.dtd">
<!-- Generated by graphviz version 2.40.1 (20161225.0304)
 -->
<!-- Title: ../build/test/print_graph; 5 samples Pages: 1 -->
<svg width="100%" height="100%"
  xmlns="http://www.w3.org/2000/svg" xmlns:xlink="http://www.w3.org/1999/xlink">
<script type="text/ecmascript"><![CDATA[
// SVGPan
// http://www.cyberz.org/blog/2009/12/08/svgpan-a-javascript-svg-panzoomdrag-library/
// Local modification: if(true || ...) below to force panning, never moving.

/**
 *  SVGPan library 1.2
 * ====================
 *
 * Given an unique existing element with id "viewport", including the
 * the library into any SVG adds the following capabilities:
 *
 *  - Mouse panning
 *  - Mouse zooming (using the wheel)
 *  - Object dargging
 *
 * Known issues:
 *
 *  - Zooming (while panning) on Safari has still some issues
 *
 * Releases:
 *
 * 1.2, Sat Mar 20 08:42:50 GMT 2010, Zeng Xiaohui
 *	Fixed a bug with browser mouse handler interaction
 *
 * 1.1, Wed Feb  3 17:39:33 GMT 2010, Zeng Xiaohui
 *	Updated the zoom code to support the mouse wheel on Safari/Chrome
 *
 * 1.0, Andrea Leofreddi
 *	First release
 *
 * This code is licensed under the following BSD license:
 *
 * Copyright 2009-2010 Andrea Leofreddi <a.leofreddi@itcharm.com>. All rights reserved.
 *
 * Redistribution and use in source and binary forms, with or without modification, are
 * permitted provided that the following conditions are met:
 *
 *    1. Redistributions of source code must retain the above copyright notice, this list of
 *       conditions and the following disclaimer.
 *
 *    2. Redistributions in binary form must reproduce the above copyright notice, this list
 *       of conditions and the following disclaimer in the documentation and/or other materials
 *       provided with the distribution.
 *
 * THIS SOFTWARE IS PROVIDED BY Andrea Leofreddi ``AS IS'' AND ANY EXPRESS OR IMPLIED
 * WARRANTIES, INCLUDING, BUT NOT LIMITED TO, THE IMPLIED WARRANTIES OF MERCHANTABILITY AND
 * FITNESS FOR A PARTICULAR PURPOSE ARE DISCLAIMED. IN NO EVENT SHALL Andrea Leofreddi OR
 * CONTRIBUTORS BE LIABLE FOR ANY DIRECT, INDIRECT, INCIDENTAL, SPECIAL, EXEMPLARY, OR
 * CONSEQUENTIAL DAMAGES (INCLUDING, BUT NOT LIMITED TO, PROCUREMENT OF SUBSTITUTE GOODS OR
 * SERVICES; LOSS OF USE, DATA, OR PROFITS; OR BUSINESS INTERRUPTION) HOWEVER CAUSED AND ON
 * ANY THEORY OF LIABILITY, WHETHER IN CONTRACT, STRICT LIABILITY, OR TORT (INCLUDING
 * NEGLIGENCE OR OTHERWISE) ARISING IN ANY WAY OUT OF THE USE OF THIS SOFTWARE, EVEN IF
 * ADVISED OF THE POSSIBILITY OF SUCH DAMAGE.
 *
 * The views and conclusions contained in the software and documentation are those of the
 * authors and should not be interpreted as representing official policies, either expressed
 * or implied, of Andrea Leofreddi.
 */

var root = document.documentElement;

var state = 'none', stateTarget, stateOrigin, stateTf;

setupHandlers(root);

/**
 * Register handlers
 */
function setupHandlers(root){
	setAttributes(root, {
		"onmouseup" : "add(evt)",
		"onmousedown" : "handleMouseDown(evt)",
		"onmousemove" : "handleMouseMove(evt)",
		"onmouseup" : "handleMouseUp(evt)",
		//"onmouseout" : "handleMouseUp(evt)", // Decomment this to stop the pan functionality when dragging out of the SVG element
	});

	if(navigator.userAgent.toLowerCase().indexOf('webkit') >= 0)
		window.addEventListener('mousewheel', handleMouseWheel, false); // Chrome/Safari
	else
		window.addEventListener('DOMMouseScroll', handleMouseWheel, false); // Others

	var g = svgDoc.getElementById("svg");
	g.width = "100%";
	g.height = "100%";
}

/**
 * Instance an SVGPoint object with given event coordinates.
 */
function getEventPoint(evt) {
	var p = root.createSVGPoint();

	p.x = evt.clientX;
	p.y = evt.clientY;

	return p;
}

/**
 * Sets the current transform matrix of an element.
 */
function setCTM(element, matrix) {
	var s = "matrix(" + matrix.a + "," + matrix.b + "," + matrix.c + "," + matrix.d + "," + matrix.e + "," + matrix.f + ")";

	element.setAttribute("transform", s);
}

/**
 * Dumps a matrix to a string (useful for debug).
 */
function dumpMatrix(matrix) {
	var s = "[ " + matrix.a + ", " + matrix.c + ", " + matrix.e + "\n  " + matrix.b + ", " + matrix.d + ", " + matrix.f + "\n  0, 0, 1 ]";

	return s;
}

/**
 * Sets attributes of an element.
 */
function setAttributes(element, attributes){
	for (i in attributes)
		element.setAttributeNS(null, i, attributes[i]);
}

/**
 * Handle mouse move event.
 */
function handleMouseWheel(evt) {
	if(evt.preventDefault)
		evt.preventDefault();

	evt.returnValue = false;

	var svgDoc = evt.target.ownerDocument;

	var delta;

	if(evt.wheelDelta)
		delta = evt.wheelDelta / 3600; // Chrome/Safari
	else
		delta = evt.detail / -90; // Mozilla

	var z = 1 + delta; // Zoom factor: 0.9/1.1

	var g = svgDoc.getElementById("viewport");

	var p = getEventPoint(evt);

	p = p.matrixTransform(g.getCTM().inverse());

	// Compute new scale matrix in current mouse position
	var k = root.createSVGMatrix().translate(p.x, p.y).scale(z).translate(-p.x, -p.y);

        setCTM(g, g.getCTM().multiply(k));

	stateTf = stateTf.multiply(k.inverse());
}

/**
 * Handle mouse move event.
 */
function handleMouseMove(evt) {
	if(evt.preventDefault)
		evt.preventDefault();

	evt.returnValue = false;

	var svgDoc = evt.target.ownerDocument;

	var g = svgDoc.getElementById("viewport");

	if(state == 'pan') {
		// Pan mode
		var p = getEventPoint(evt).matrixTransform(stateTf);

		setCTM(g, stateTf.inverse().translate(p.x - stateOrigin.x, p.y - stateOrigin.y));
	} else if(state == 'move') {
		// Move mode
		var p = getEventPoint(evt).matrixTransform(g.getCTM().inverse());

		setCTM(stateTarget, root.createSVGMatrix().translate(p.x - stateOrigin.x, p.y - stateOrigin.y).multiply(g.getCTM().inverse()).multiply(stateTarget.getCTM()));

		stateOrigin = p;
	}
}

/**
 * Handle click event.
 */
function handleMouseDown(evt) {
	if(evt.preventDefault)
		evt.preventDefault();

	evt.returnValue = false;

	var svgDoc = evt.target.ownerDocument;

	var g = svgDoc.getElementById("viewport");

	if(true || evt.target.tagName == "svg") {
		// Pan mode
		state = 'pan';

		stateTf = g.getCTM().inverse();

		stateOrigin = getEventPoint(evt).matrixTransform(stateTf);
	} else {
		// Move mode
		state = 'move';

		stateTarget = evt.target;

		stateTf = g.getCTM().inverse();

		stateOrigin = getEventPoint(evt).matrixTransform(stateTf);
	}
}

/**
 * Handle mouse button release event.
 */
function handleMouseUp(evt) {
	if(evt.preventDefault)
		evt.preventDefault();

	evt.returnValue = false;

	var svgDoc = evt.target.ownerDocument;

	if(state == 'pan' || state == 'move') {
		// Quit pan mode
		state = '';
	}
}

]]></script>
<g id="viewport" transform="translate(0,0)">
<g id="viewport" class="graph" transform="scale(1 1) rotate(0) translate(4 1708)">
<title>../build/test/print_graph; 5 samples</title>
<polygon fill="#ffffff" stroke="transparent" points="-4,4 -4,-1708 644,-1708 644,4 -4,4"/>
<!-- Legend -->
<g id="node1" class="node">
<title>Legend</title>
<text text-anchor="start" x="8" y="-1680.8" font-family="Times,serif" font-size="24.00" fill="#000000">../build/test/print_graph</text>
<text text-anchor="start" x="8" y="-1654.8" font-family="Times,serif" font-size="24.00" fill="#000000">Total samples: 5</text>
<text text-anchor="start" x="8" y="-1628.8" font-family="Times,serif" font-size="24.00" fill="#000000">Focusing on: 3</text>
<text text-anchor="start" x="8" y="-1602.8" font-family="Times,serif" font-size="24.00" fill="#000000">Dropped nodes with &lt;= 0 abs(samples)</text>
<text text-anchor="start" x="8" y="-1576.8" font-family="Times,serif" font-size="24.00" fill="#000000">Dropped edges with &lt;= 0 samples</text>
</g>
<!-- N1 -->
<g id="node2" class="node">
<title>N1</title>
<polygon fill="none" stroke="#000000" points="488.5,-1652.5 409.5,-1652.5 409.5,-1617.5 488.5,-1617.5 488.5,-1652.5"/>
<text text-anchor="middle" x="449" y="-1642.1" font-family="Times,serif" font-size="8.00" fill="#000000">__libc_start_main</text>
<text text-anchor="end" x="480.5" y="-1633.1" font-family="Times,serif" font-size="8.00" fill="#000000">0 (0.0%)</text>
<text text-anchor="end" x="480.5" y="-1624.1" font-family="Times,serif" font-size="8.00" fill="#000000">of 3 (100.0%)</text>
</g>
<!-- N4 -->
<g id="node5" class="node">
<title>N4</title>
<polygon fill="none" stroke="#000000" points="482,-1515 416,-1515 416,-1480 482,-1480 482,-1515"/>
<text text-anchor="middle" x="449" y="-1504.6" font-family="Times,serif" font-size="8.00" fill="#000000">main</text>
<text text-anchor="end" x="474" y="-1495.6" font-family="Times,serif" font-size="8.00" fill="#000000">0 (0.0%)</text>
<text text-anchor="end" x="474" y="-1486.6" font-family="Times,serif" font-size="8.00" fill="#000000">of 3 (100.0%)</text>
</g>
<!-- N1&#45;&gt;N4 -->
<g id="edge2" class="edge">
<title>N1&#45;&gt;N4</title>
<path fill="none" stroke="#000000" stroke-width="2" d="M449,-1617.3058C449,-1593.998 449,-1552.7543 449,-1525.2699"/>
<polygon fill="#000000" stroke="#000000" stroke-width="2" points="452.5001,-1525.1263 449,-1515.1263 445.5001,-1525.1264 452.5001,-1525.1263"/>
<text text-anchor="middle" x="453" y="-1536.8" font-family="Times,serif" font-size="14.00" fill="#000000">3</text>
</g>
<!-- N2 -->
<g id="node3" class="node">
<title>N2</title>
<polygon fill="none" stroke="#000000" points="456,-1151 390,-1151 390,-1116 456,-1116 456,-1151"/>
<text text-anchor="middle" x="423" y="-1140.6" font-family="Times,serif" font-size="8.00" fill="#000000">dfs</text>
<text text-anchor="end" x="448" y="-1131.6" font-family="Times,serif" font-size="8.00" fill="#000000">0 (0.0%)</text>
<text text-anchor="end" x="448" y="-1122.6" font-family="Times,serif" font-size="8.00" fill="#000000">of 3 (100.0%)</text>
</g>
<!-- N3 -->
<g id="node4" class="node">
<title>N3</title>
<polygon fill="none" stroke="#000000" points="461,-1065 385,-1065 385,-1030 461,-1030 461,-1065"/>
<text text-anchor="middle" x="423" y="-1054.6" font-family="Times,serif" font-size="8.00" fill="#000000">dfs_base_parents</text>
<text text-anchor="end" x="453" y="-1045.6" font-family="Times,serif" font-size="8.00" fill="#000000">0 (0.0%)</text>
<text text-anchor="end" x="453" y="-1036.6" font-family="Times,serif" font-size="8.00" fill="#000000">of 3 (100.0%)</text>
</g>
<!-- N2&#45;&gt;N3 -->
<g id="edge1" class="edge">
<title>N2&#45;&gt;N3</title>
<path fill="none" stroke="#000000" stroke-width="2" d="M423,-1115.6807C423,-1103.9568 423,-1088.3768 423,-1075.0697"/>
<polygon fill="#000000" stroke="#000000" stroke-width="2" points="426.5001,-1075.0021 423,-1065.0022 419.5001,-1075.0022 426.5001,-1075.0021"/>
<text text-anchor="middle" x="427" y="-1086.8" font-family="Times,serif" font-size="14.00" fill="#000000">3</text>
</g>
<!-- N8 -->
<g id="node9" class="node">
<title>N8</title>
<polygon fill="none" stroke="#000000" points="319,-935.5 257,-935.5 257,-891.5 319,-891.5 319,-935.5"/>
<text text-anchor="middle" x="288" y="-925.1" font-family="Times,serif" font-size="8.00" fill="#000000">RSBitmap</text>
<text text-anchor="middle" x="288" y="-916.1" font-family="Times,serif" font-size="8.00" fill="#000000">get_n</text>
<text text-anchor="end" x="311" y="-907.1" font-family="Times,serif" font-size="8.00" fill="#000000">0 (0.0%)</text>
<text text-anchor="end" x="311" y="-898.1" font-family="Times,serif" font-size="8.00" fill="#000000">of 1 (33.3%)</text>
</g>
<!-- N3&#45;&gt;N8 -->
<g id="edge15" class="edge">
<title>N3&#45;&gt;N8</title>
<path fill="none" stroke="#000000" stroke-width="2" d="M392.3347,-1029.8297C372.4292,-1017.3518 346.7922,-999.2872 328,-979 318.569,-968.8187 310.1908,-956.0796 303.5699,-944.5494"/>
<polygon fill="#000000" stroke="#000000" stroke-width="2" points="306.5459,-942.6981 298.6502,-935.6335 300.417,-946.08 306.5459,-942.6981"/>
<text text-anchor="middle" x="369" y="-1000.8" font-family="Times,serif" font-size="14.00" fill="#000000">1</text>
</g>
<!-- N12 -->
<g id="node13" class="node">
<title>N12</title>
<polygon fill="none" stroke="#000000" points="509,-979 337,-979 337,-848 509,-848 509,-979"/>
<text text-anchor="middle" x="423" y="-945.48" font-family="Times,serif" font-size="36.90" fill="#000000">SFLGraph</text>
<text text-anchor="middle" x="423" y="-904.48" font-family="Times,serif" font-size="36.90" fill="#000000">mate</text>
<text text-anchor="end" x="501" y="-863.48" font-family="Times,serif" font-size="36.90" fill="#000000">1 (33.3%)</text>
</g>
<!-- N3&#45;&gt;N12 -->
<g id="edge12" class="edge">
<title>N3&#45;&gt;N12</title>
<path fill="none" stroke="#000000" stroke-width="2" d="M423,-1029.9818C423,-1019.2158 423,-1004.5986 423,-989.3589"/>
<polygon fill="#000000" stroke="#000000" stroke-width="2" points="426.5001,-989.2886 423,-979.2886 419.5001,-989.2886 426.5001,-989.2886"/>
<text text-anchor="middle" x="427" y="-1000.8" font-family="Times,serif" font-size="14.00" fill="#000000">1</text>
</g>
<!-- N20 -->
<g id="node21" class="node">
<title>N20</title>
<polygon fill="none" stroke="#000000" points="589,-940 527,-940 527,-887 589,-887 589,-940"/>
<text text-anchor="middle" x="558" y="-929.6" font-family="Times,serif" font-size="8.00" fill="#000000">std</text>
<text text-anchor="middle" x="558" y="-920.6" font-family="Times,serif" font-size="8.00" fill="#000000">function</text>
<text text-anchor="middle" x="558" y="-911.6" font-family="Times,serif" font-size="8.00" fill="#000000">operator</text>
<text text-anchor="end" x="581" y="-902.6" font-family="Times,serif" font-size="8.00" fill="#000000">0 (0.0%)</text>
<text text-anchor="end" x="581" y="-893.6" font-family="Times,serif" font-size="8.00" fill="#000000">of 1 (33.3%)</text>
</g>
<!-- N3&#45;&gt;N20 -->
<g id="edge10" class="edge">
<title>N3&#45;&gt;N20</title>
<path fill="none" stroke="#000000" stroke-width="2" d="M453.6653,-1029.8297C473.5708,-1017.3518 499.2078,-999.2872 518,-979 526.2638,-970.0788 533.7192,-959.1937 539.8924,-948.8788"/>
<polygon fill="#000000" stroke="#000000" stroke-width="2" points="543.032,-950.4398 544.9754,-940.0247 536.9612,-946.9547 543.032,-950.4398"/>
<text text-anchor="middle" x="501" y="-1000.8" font-family="Times,serif" font-size="14.00" fill="#000000">1</text>
</g>
<!-- N5 -->
<g id="node6" class="node">
<title>N5</title>
<polygon fill="none" stroke="#000000" points="452,-1429 382,-1429 382,-1394 452,-1394 452,-1429"/>
<text text-anchor="middle" x="417" y="-1418.6" font-family="Times,serif" font-size="8.00" fill="#000000">annotate_edges</text>
<text text-anchor="end" x="444" y="-1409.6" font-family="Times,serif" font-size="8.00" fill="#000000">0 (0.0%)</text>
<text text-anchor="end" x="444" y="-1400.6" font-family="Times,serif" font-size="8.00" fill="#000000">of 2 (66.7%)</text>
</g>
<!-- N4&#45;&gt;N5 -->
<g id="edge4" class="edge">
<title>N4&#45;&gt;N5</title>
<path fill="none" stroke="#000000" stroke-width="2" d="M442.3696,-1479.6807C437.964,-1467.8407 432.095,-1452.0679 427.1117,-1438.6752"/>
<polygon fill="#000000" stroke="#000000" stroke-width="2" points="430.2801,-1437.1538 423.5124,-1429.0022 423.7196,-1439.595 430.2801,-1437.1538"/>
<text text-anchor="middle" x="438" y="-1450.8" font-family="Times,serif" font-size="14.00" fill="#000000">2</text>
</g>
<!-- N15 -->
<g id="node16" class="node">
<title>N15</title>
<polygon fill="none" stroke="#000000" points="534.5,-1376 429.5,-1376 429.5,-1341 534.5,-1341 534.5,-1376"/>
<text text-anchor="middle" x="482" y="-1365.6" font-family="Times,serif" font-size="8.00" fill="#000000">biconnected_components</text>
<text text-anchor="end" x="526.5" y="-1356.6" font-family="Times,serif" font-size="8.00" fill="#000000">0 (0.0%)</text>
<text text-anchor="end" x="526.5" y="-1347.6" font-family="Times,serif" font-size="8.00" fill="#000000">of 1 (33.3%)</text>
</g>
<!-- N4&#45;&gt;N15 -->
<g id="edge6" class="edge">
<title>N4&#45;&gt;N15</title>
<path fill="none" stroke="#000000" stroke-width="2" d="M453.1795,-1479.8956C458.7773,-1456.3167 468.7709,-1414.2228 475.3933,-1386.328"/>
<polygon fill="#000000" stroke="#000000" stroke-width="2" points="478.8456,-1386.9386 477.7502,-1376.4006 472.0349,-1385.3216 478.8456,-1386.9386"/>
<text text-anchor="middle" x="464" y="-1450.8" font-family="Times,serif" font-size="14.00" fill="#000000">1</text>
</g>
<!-- N6 -->
<g id="node7" class="node">
<title>N6</title>
<polygon fill="none" stroke="#000000" points="448,-1323 384,-1323 384,-1288 448,-1288 448,-1323"/>
<text text-anchor="middle" x="416" y="-1312.6" font-family="Times,serif" font-size="8.00" fill="#000000">update_edges</text>
<text text-anchor="end" x="440" y="-1303.6" font-family="Times,serif" font-size="8.00" fill="#000000">0 (0.0%)</text>
<text text-anchor="end" x="440" y="-1294.6" font-family="Times,serif" font-size="8.00" fill="#000000">of 2 (66.7%)</text>
</g>
<!-- N5&#45;&gt;N6 -->
<g id="edge3" class="edge">
<title>N5&#45;&gt;N6</title>
<path fill="none" stroke="#000000" stroke-width="2" d="M416.8349,-1393.9963C416.6785,-1377.4249 416.4414,-1352.2853 416.2597,-1333.03"/>
<polygon fill="#000000" stroke="#000000" stroke-width="2" points="419.7597,-1332.9963 416.1654,-1323.0297 412.76,-1333.0624 419.7597,-1332.9963"/>
<text text-anchor="middle" x="421" y="-1354.8" font-family="Times,serif" font-size="14.00" fill="#000000">2</text>
</g>
<!-- N6&#45;&gt;N2 -->
<g id="edge5" class="edge">
<title>N6&#45;&gt;N2</title>
<path fill="none" stroke="#000000" stroke-width="2" d="M401.058,-1287.8305C385.6954,-1267.4471 365.2889,-1232.781 375,-1202 379.9699,-1186.2472 390,-1170.9692 399.6123,-1158.8543"/>
<polygon fill="#000000" stroke="#000000" stroke-width="2" points="402.4348,-1160.9339 406.1328,-1151.0053 397.0505,-1156.4607 402.4348,-1160.9339"/>
<text text-anchor="middle" x="379" y="-1215.8" font-family="Times,serif" font-size="14.00" fill="#000000">1</text>
</g>
<!-- N16 -->
<g id="node17" class="node">
<title>N16</title>
<polygon fill="none" stroke="#000000" points="454,-1237 392,-1237 392,-1202 454,-1202 454,-1237"/>
<text text-anchor="middle" x="423" y="-1226.6" font-family="Times,serif" font-size="8.00" fill="#000000">mark_edges</text>
<text text-anchor="end" x="446" y="-1217.6" font-family="Times,serif" font-size="8.00" fill="#000000">0 (0.0%)</text>
<text text-anchor="end" x="446" y="-1208.6" font-family="Times,serif" font-size="8.00" fill="#000000">of 1 (33.3%)</text>
</g>
<!-- N6&#45;&gt;N16 -->
<g id="edge9" class="edge">
<title>N6&#45;&gt;N16</title>
<path fill="none" stroke="#000000" stroke-width="2" d="M417.4504,-1287.6807C418.4047,-1275.9568 419.6728,-1260.3768 420.756,-1247.0697"/>
<polygon fill="#000000" stroke="#000000" stroke-width="2" points="424.2525,-1247.2532 421.5754,-1237.0022 417.2756,-1246.6852 424.2525,-1247.2532"/>
<text text-anchor="middle" x="423" y="-1258.8" font-family="Times,serif" font-size="14.00" fill="#000000">1</text>
</g>
<!-- N7 -->
<g id="node8" class="node">
<title>N7</title>
<polygon fill="none" stroke="#000000" points="421,-693 155,-693 155,-562 421,-562 421,-693"/>
<text text-anchor="middle" x="288" y="-659.48" font-family="Times,serif" font-size="36.90" fill="#000000">ConstTimeArray</text>
<text text-anchor="middle" x="288" y="-618.48" font-family="Times,serif" font-size="36.90" fill="#000000">is_init</text>
<text text-anchor="end" x="413" y="-577.48" font-family="Times,serif" font-size="36.90" fill="#000000">1 (33.3%)</text>
</g>
<!-- N9 -->
<g id="node10" class="node">
<title>N9</title>
<polygon fill="none" stroke="#000000" points="319,-792.5 257,-792.5 257,-748.5 319,-748.5 319,-792.5"/>
<text text-anchor="middle" x="288" y="-782.1" font-family="Times,serif" font-size="8.00" fill="#000000">RSBitmap</text>
<text text-anchor="middle" x="288" y="-773.1" font-family="Times,serif" font-size="8.00" fill="#000000">is_pos_init</text>
<text text-anchor="end" x="311" y="-764.1" font-family="Times,serif" font-size="8.00" fill="#000000">0 (0.0%)</text>
<text text-anchor="end" x="311" y="-755.1" font-family="Times,serif" font-size="8.00" fill="#000000">of 1 (33.3%)</text>
</g>
<!-- N8&#45;&gt;N9 -->
<g id="edge7" class="edge">
<title>N8&#45;&gt;N9</title>
<path fill="none" stroke="#000000" stroke-width="2" d="M288,-891.4696C288,-867.8156 288,-829.9932 288,-802.9378"/>
<polygon fill="#000000" stroke="#000000" stroke-width="2" points="291.5001,-802.791 288,-792.791 284.5001,-802.791 291.5001,-802.791"/>
<text text-anchor="middle" x="292" y="-818.8" font-family="Times,serif" font-size="14.00" fill="#000000">1</text>
</g>
<!-- N9&#45;&gt;N7 -->
<g id="edge11" class="edge">
<title>N9&#45;&gt;N7</title>
<path fill="none" stroke="#000000" stroke-width="2" d="M288,-748.4696C288,-736.1425 288,-719.9675 288,-703.4738"/>
<polygon fill="#000000" stroke="#000000" stroke-width="2" points="291.5001,-703.1944 288,-693.1945 284.5001,-703.1945 291.5001,-703.1944"/>
<text text-anchor="middle" x="292" y="-714.8" font-family="Times,serif" font-size="14.00" fill="#000000">1</text>
</g>
<!-- N10 -->
<g id="node11" class="node">
<title>N10</title>
<polygon fill="none" stroke="#000000" points="589,-321 527,-321 527,-277 589,-277 589,-321"/>
<text text-anchor="middle" x="558" y="-310.6" font-family="Times,serif" font-size="8.00" fill="#000000">RSBitmap</text>
<text text-anchor="middle" x="558" y="-301.6" font-family="Times,serif" font-size="8.00" fill="#000000">next_one</text>
<text text-anchor="end" x="581" y="-292.6" font-family="Times,serif" font-size="8.00" fill="#000000">0 (0.0%)</text>
<text text-anchor="end" x="581" y="-283.6" font-family="Times,serif" font-size="8.00" fill="#000000">of 1 (33.3%)</text>
</g>
<!-- N11 -->
<g id="node12" class="node">
<title>N11</title>
<polygon fill="none" stroke="#000000" points="589,-226 527,-226 527,-182 589,-182 589,-226"/>
<text text-anchor="middle" x="558" y="-215.6" font-family="Times,serif" font-size="8.00" fill="#000000">RSBitmap</text>
<text text-anchor="middle" x="558" y="-206.6" font-family="Times,serif" font-size="8.00" fill="#000000">rank</text>
<text text-anchor="end" x="581" y="-197.6" font-family="Times,serif" font-size="8.00" fill="#000000">0 (0.0%)</text>
<text text-anchor="end" x="581" y="-188.6" font-family="Times,serif" font-size="8.00" fill="#000000">of 1 (33.3%)</text>
</g>
<!-- N10&#45;&gt;N11 -->
<g id="edge19" class="edge">
<title>N10&#45;&gt;N11</title>
<path fill="none" stroke="#000000" stroke-width="2" d="M558,-276.9663C558,-264.9427 558,-249.8283 558,-236.4785"/>
<polygon fill="#000000" stroke="#000000" stroke-width="2" points="561.5001,-236.2433 558,-226.2433 554.5001,-236.2433 561.5001,-236.2433"/>
<text text-anchor="middle" x="562" y="-247.8" font-family="Times,serif" font-size="14.00" fill="#000000">1</text>
</g>
<!-- N18 -->
<g id="node19" class="node">
<title>N18</title>
<polygon fill="none" stroke="#000000" points="640,-131 476,-131 476,0 640,0 640,-131"/>
<text text-anchor="middle" x="558" y="-97.48" font-family="Times,serif" font-size="36.90" fill="#000000">rank9sel</text>
<text text-anchor="middle" x="558" y="-56.48" font-family="Times,serif" font-size="36.90" fill="#000000">rank</text>
<text text-anchor="end" x="632" y="-15.48" font-family="Times,serif" font-size="36.90" fill="#000000">1 (33.3%)</text>
</g>
<!-- N11&#45;&gt;N18 -->
<g id="edge14" class="edge">
<title>N11&#45;&gt;N18</title>
<path fill="none" stroke="#000000" stroke-width="2" d="M558,-181.7476C558,-170.5023 558,-156.1263 558,-141.3459"/>
<polygon fill="#000000" stroke="#000000" stroke-width="2" points="561.5001,-141.0822 558,-131.0822 554.5001,-141.0823 561.5001,-141.0822"/>
<text text-anchor="middle" x="562" y="-152.8" font-family="Times,serif" font-size="14.00" fill="#000000">1</text>
</g>
<!-- N13 -->
<g id="node14" class="node">
<title>N13</title>
<polygon fill="none" stroke="#000000" points="595.5,-416 520.5,-416 520.5,-372 595.5,-372 595.5,-416"/>
<text text-anchor="middle" x="558" y="-405.6" font-family="Times,serif" font-size="8.00" fill="#000000">SegmentedArray</text>
<text text-anchor="middle" x="558" y="-396.6" font-family="Times,serif" font-size="8.00" fill="#000000">get_pos</text>
<text text-anchor="end" x="587.5" y="-387.6" font-family="Times,serif" font-size="8.00" fill="#000000">0 (0.0%)</text>
<text text-anchor="end" x="587.5" y="-378.6" font-family="Times,serif" font-size="8.00" fill="#000000">of 1 (33.3%)</text>
</g>
<!-- N13&#45;&gt;N10 -->
<g id="edge17" class="edge">
<title>N13&#45;&gt;N10</title>
<path fill="none" stroke="#000000" stroke-width="2" d="M558,-371.9663C558,-359.9427 558,-344.8283 558,-331.4785"/>
<polygon fill="#000000" stroke="#000000" stroke-width="2" points="561.5001,-331.2433 558,-321.2433 554.5001,-331.2433 561.5001,-331.2433"/>
<text text-anchor="middle" x="562" y="-342.8" font-family="Times,serif" font-size="14.00" fill="#000000">1</text>
</g>
<!-- N14 -->
<g id="node15" class="node">
<title>N14</title>
<polygon fill="none" stroke="#000000" points="600.5,-511 515.5,-511 515.5,-467 600.5,-467 600.5,-511"/>
<text text-anchor="middle" x="558" y="-500.6" font-family="Times,serif" font-size="8.00" fill="#000000">SegmentedArray</text>
<text text-anchor="middle" x="558" y="-491.6" font-family="Times,serif" font-size="8.00" fill="#000000">select_segment_pos</text>
<text text-anchor="end" x="592.5" y="-482.6" font-family="Times,serif" font-size="8.00" fill="#000000">0 (0.0%)</text>
<text text-anchor="end" x="592.5" y="-473.6" font-family="Times,serif" font-size="8.00" fill="#000000">of 1 (33.3%)</text>
</g>
<!-- N14&#45;&gt;N13 -->
<g id="edge8" class="edge">
<title>N14&#45;&gt;N13</title>
<path fill="none" stroke="#000000" stroke-width="2" d="M558,-466.9663C558,-454.9427 558,-439.8283 558,-426.4785"/>
<polygon fill="#000000" stroke="#000000" stroke-width="2" points="561.5001,-426.2433 558,-416.2433 554.5001,-426.2433 561.5001,-426.2433"/>
<text text-anchor="middle" x="562" y="-437.8" font-family="Times,serif" font-size="14.00" fill="#000000">1</text>
</g>
<!-- N15&#45;&gt;N2 -->
<g id="edge18" class="edge">
<title>N15&#45;&gt;N2</title>
<path fill="none" stroke="#000000" stroke-width="2" d="M482.1577,-1340.6177C481.9109,-1311.0008 479.2394,-1250.2479 463,-1202 457.9802,-1187.0861 449.4725,-1171.8386 441.5905,-1159.5267"/>
<polygon fill="#000000" stroke="#000000" stroke-width="2" points="444.4642,-1157.5271 436.0207,-1151.1273 438.6303,-1161.3957 444.4642,-1157.5271"/>
<text text-anchor="middle" x="481" y="-1258.8" font-family="Times,serif" font-size="14.00" fill="#000000">1</text>
</g>
<!-- N16&#45;&gt;N2 -->
<g id="edge16" class="edge">
<title>N16&#45;&gt;N2</title>
<path fill="none" stroke="#000000" stroke-width="2" d="M423,-1201.6807C423,-1189.9568 423,-1174.3768 423,-1161.0697"/>
<polygon fill="#000000" stroke="#000000" stroke-width="2" points="426.5001,-1161.0021 423,-1151.0022 419.5001,-1161.0022 426.5001,-1161.0021"/>
<text text-anchor="middle" x="427" y="-1172.8" font-family="Times,serif" font-size="14.00" fill="#000000">1</text>
</g>
<!-- N17 -->
<g id="node18" class="node">
<title>N17</title>
<polygon fill="none" stroke="#000000" points="589,-654 527,-654 527,-601 589,-601 589,-654"/>
<text text-anchor="middle" x="558" y="-643.6" font-family="Times,serif" font-size="8.00" fill="#000000">mark_edges</text>
<text text-anchor="middle" x="558" y="-634.6" font-family="Times,serif" font-size="8.00" fill="#000000">{lambda#1}</text>
<text text-anchor="middle" x="558" y="-625.6" font-family="Times,serif" font-size="8.00" fill="#000000">operator</text>
<text text-anchor="end" x="581" y="-616.6" font-family="Times,serif" font-size="8.00" fill="#000000">0 (0.0%)</text>
<text text-anchor="end" x="581" y="-607.6" font-family="Times,serif" font-size="8.00" fill="#000000">of 1 (33.3%)</text>
</g>
<!-- N17&#45;&gt;N14 -->
<g id="edge13" class="edge">
<title>N17&#45;&gt;N14</title>
<path fill="none" stroke="#000000" stroke-width="2" d="M558,-600.7958C558,-578.0626 558,-545.342 558,-521.17"/>
<polygon fill="#000000" stroke="#000000" stroke-width="2" points="561.5001,-521.0605 558,-511.0606 554.5001,-521.0606 561.5001,-521.0605"/>
<text text-anchor="middle" x="562" y="-532.8" font-family="Times,serif" font-size="14.00" fill="#000000">1</text>
</g>
<!-- N19 -->
<g id="node20" class="node">
<title>N19</title>
<polygon fill="none" stroke="#000000" points="599.5,-797 516.5,-797 516.5,-744 599.5,-744 599.5,-797"/>
<text text-anchor="middle" x="558" y="-786.6" font-family="Times,serif" font-size="8.00" fill="#000000">std</text>
<text text-anchor="middle" x="558" y="-777.6" font-family="Times,serif" font-size="8.00" fill="#000000">_Function_handler</text>
<text text-anchor="middle" x="558" y="-768.6" font-family="Times,serif" font-size="8.00" fill="#000000">_M_invoke</text>
<text text-anchor="end" x="591.5" y="-759.6" font-family="Times,serif" font-size="8.00" fill="#000000">0 (0.0%)</text>
<text text-anchor="end" x="591.5" y="-750.6" font-family="Times,serif" font-size="8.00" fill="#000000">of 1 (33.3%)</text>
</g>
<!-- N19&#45;&gt;N17 -->
<g id="edge21" class="edge">
<title>N19&#45;&gt;N17</title>
<path fill="none" stroke="#000000" stroke-width="2" d="M558,-743.9379C558,-721.6049 558,-689.435 558,-664.5662"/>
<polygon fill="#000000" stroke="#000000" stroke-width="2" points="561.5001,-664.405 558,-654.4051 554.5001,-664.4051 561.5001,-664.405"/>
<text text-anchor="middle" x="562" y="-714.8" font-family="Times,serif" font-size="14.00" fill="#000000">1</text>
</g>
<!-- N20&#45;&gt;N19 -->
<g id="edge20" class="edge">
<title>N20&#45;&gt;N19</title>
<path fill="none" stroke="#000000" stroke-width="2" d="M558,-886.9379C558,-864.6049 558,-832.435 558,-807.5662"/>
<polygon fill="#000000" stroke="#000000" stroke-width="2" points="561.5001,-807.405 558,-797.4051 554.5001,-807.4051 561.5001,-807.405"/>
<text text-anchor="middle" x="562" y="-818.8" font-family="Times,serif" font-size="14.00" fill="#000000">1</text>
</g>
</g>
</g></svg>
