<?xml version="1.0" encoding="UTF-8" standalone="no"?>
<!DOCTYPE svg PUBLIC "-//W3C//DTD SVG 1.1//EN"
 "http://www.w3.org/Graphics/SVG/1.1/DTD/svg11.dtd">
<!-- Generated by graphviz version 2.40.1 (20161225.0304)
 -->
<!-- Title: ../build/test/print_graph; 20 samples Pages: 1 -->
<svg width="100%" height="100%"
  xmlns="http://www.w3.org/2000/svg" xmlns:xlink="http://www.w3.org/1999/xlink">
<script type="text/ecmascript"><![CDATA[
// SVGPan
// http://www.cyberz.org/blog/2009/12/08/svgpan-a-javascript-svg-panzoomdrag-library/
// Local modification: if(true || ...) below to force panning, never moving.

/**
 *  SVGPan library 1.2
 * ====================
 *
 * Given an unique existing element with id "viewport", including the
 * the library into any SVG adds the following capabilities:
 *
 *  - Mouse panning
 *  - Mouse zooming (using the wheel)
 *  - Object dargging
 *
 * Known issues:
 *
 *  - Zooming (while panning) on Safari has still some issues
 *
 * Releases:
 *
 * 1.2, Sat Mar 20 08:42:50 GMT 2010, Zeng Xiaohui
 *	Fixed a bug with browser mouse handler interaction
 *
 * 1.1, Wed Feb  3 17:39:33 GMT 2010, Zeng Xiaohui
 *	Updated the zoom code to support the mouse wheel on Safari/Chrome
 *
 * 1.0, Andrea Leofreddi
 *	First release
 *
 * This code is licensed under the following BSD license:
 *
 * Copyright 2009-2010 Andrea Leofreddi <a.leofreddi@itcharm.com>. All rights reserved.
 *
 * Redistribution and use in source and binary forms, with or without modification, are
 * permitted provided that the following conditions are met:
 *
 *    1. Redistributions of source code must retain the above copyright notice, this list of
 *       conditions and the following disclaimer.
 *
 *    2. Redistributions in binary form must reproduce the above copyright notice, this list
 *       of conditions and the following disclaimer in the documentation and/or other materials
 *       provided with the distribution.
 *
 * THIS SOFTWARE IS PROVIDED BY Andrea Leofreddi ``AS IS'' AND ANY EXPRESS OR IMPLIED
 * WARRANTIES, INCLUDING, BUT NOT LIMITED TO, THE IMPLIED WARRANTIES OF MERCHANTABILITY AND
 * FITNESS FOR A PARTICULAR PURPOSE ARE DISCLAIMED. IN NO EVENT SHALL Andrea Leofreddi OR
 * CONTRIBUTORS BE LIABLE FOR ANY DIRECT, INDIRECT, INCIDENTAL, SPECIAL, EXEMPLARY, OR
 * CONSEQUENTIAL DAMAGES (INCLUDING, BUT NOT LIMITED TO, PROCUREMENT OF SUBSTITUTE GOODS OR
 * SERVICES; LOSS OF USE, DATA, OR PROFITS; OR BUSINESS INTERRUPTION) HOWEVER CAUSED AND ON
 * ANY THEORY OF LIABILITY, WHETHER IN CONTRACT, STRICT LIABILITY, OR TORT (INCLUDING
 * NEGLIGENCE OR OTHERWISE) ARISING IN ANY WAY OUT OF THE USE OF THIS SOFTWARE, EVEN IF
 * ADVISED OF THE POSSIBILITY OF SUCH DAMAGE.
 *
 * The views and conclusions contained in the software and documentation are those of the
 * authors and should not be interpreted as representing official policies, either expressed
 * or implied, of Andrea Leofreddi.
 */

var root = document.documentElement;

var state = 'none', stateTarget, stateOrigin, stateTf;

setupHandlers(root);

/**
 * Register handlers
 */
function setupHandlers(root){
	setAttributes(root, {
		"onmouseup" : "add(evt)",
		"onmousedown" : "handleMouseDown(evt)",
		"onmousemove" : "handleMouseMove(evt)",
		"onmouseup" : "handleMouseUp(evt)",
		//"onmouseout" : "handleMouseUp(evt)", // Decomment this to stop the pan functionality when dragging out of the SVG element
	});

	if(navigator.userAgent.toLowerCase().indexOf('webkit') >= 0)
		window.addEventListener('mousewheel', handleMouseWheel, false); // Chrome/Safari
	else
		window.addEventListener('DOMMouseScroll', handleMouseWheel, false); // Others

	var g = svgDoc.getElementById("svg");
	g.width = "100%";
	g.height = "100%";
}

/**
 * Instance an SVGPoint object with given event coordinates.
 */
function getEventPoint(evt) {
	var p = root.createSVGPoint();

	p.x = evt.clientX;
	p.y = evt.clientY;

	return p;
}

/**
 * Sets the current transform matrix of an element.
 */
function setCTM(element, matrix) {
	var s = "matrix(" + matrix.a + "," + matrix.b + "," + matrix.c + "," + matrix.d + "," + matrix.e + "," + matrix.f + ")";

	element.setAttribute("transform", s);
}

/**
 * Dumps a matrix to a string (useful for debug).
 */
function dumpMatrix(matrix) {
	var s = "[ " + matrix.a + ", " + matrix.c + ", " + matrix.e + "\n  " + matrix.b + ", " + matrix.d + ", " + matrix.f + "\n  0, 0, 1 ]";

	return s;
}

/**
 * Sets attributes of an element.
 */
function setAttributes(element, attributes){
	for (i in attributes)
		element.setAttributeNS(null, i, attributes[i]);
}

/**
 * Handle mouse move event.
 */
function handleMouseWheel(evt) {
	if(evt.preventDefault)
		evt.preventDefault();

	evt.returnValue = false;

	var svgDoc = evt.target.ownerDocument;

	var delta;

	if(evt.wheelDelta)
		delta = evt.wheelDelta / 3600; // Chrome/Safari
	else
		delta = evt.detail / -90; // Mozilla

	var z = 1 + delta; // Zoom factor: 0.9/1.1

	var g = svgDoc.getElementById("viewport");

	var p = getEventPoint(evt);

	p = p.matrixTransform(g.getCTM().inverse());

	// Compute new scale matrix in current mouse position
	var k = root.createSVGMatrix().translate(p.x, p.y).scale(z).translate(-p.x, -p.y);

        setCTM(g, g.getCTM().multiply(k));

	stateTf = stateTf.multiply(k.inverse());
}

/**
 * Handle mouse move event.
 */
function handleMouseMove(evt) {
	if(evt.preventDefault)
		evt.preventDefault();

	evt.returnValue = false;

	var svgDoc = evt.target.ownerDocument;

	var g = svgDoc.getElementById("viewport");

	if(state == 'pan') {
		// Pan mode
		var p = getEventPoint(evt).matrixTransform(stateTf);

		setCTM(g, stateTf.inverse().translate(p.x - stateOrigin.x, p.y - stateOrigin.y));
	} else if(state == 'move') {
		// Move mode
		var p = getEventPoint(evt).matrixTransform(g.getCTM().inverse());

		setCTM(stateTarget, root.createSVGMatrix().translate(p.x - stateOrigin.x, p.y - stateOrigin.y).multiply(g.getCTM().inverse()).multiply(stateTarget.getCTM()));

		stateOrigin = p;
	}
}

/**
 * Handle click event.
 */
function handleMouseDown(evt) {
	if(evt.preventDefault)
		evt.preventDefault();

	evt.returnValue = false;

	var svgDoc = evt.target.ownerDocument;

	var g = svgDoc.getElementById("viewport");

	if(true || evt.target.tagName == "svg") {
		// Pan mode
		state = 'pan';

		stateTf = g.getCTM().inverse();

		stateOrigin = getEventPoint(evt).matrixTransform(stateTf);
	} else {
		// Move mode
		state = 'move';

		stateTarget = evt.target;

		stateTf = g.getCTM().inverse();

		stateOrigin = getEventPoint(evt).matrixTransform(stateTf);
	}
}

/**
 * Handle mouse button release event.
 */
function handleMouseUp(evt) {
	if(evt.preventDefault)
		evt.preventDefault();

	evt.returnValue = false;

	var svgDoc = evt.target.ownerDocument;

	if(state == 'pan' || state == 'move') {
		// Quit pan mode
		state = '';
	}
}

]]></script>
<g id="viewport" transform="translate(0,0)">
<g id="viewport" class="graph" transform="scale(1 1) rotate(0) translate(4 1788)">
<title>../build/test/print_graph; 20 samples</title>
<polygon fill="#ffffff" stroke="transparent" points="-4,4 -4,-1788 867.5,-1788 867.5,4 -4,4"/>
<!-- Legend -->
<g id="node1" class="node">
<title>Legend</title>
<text text-anchor="start" x="8" y="-1760.8" font-family="Times,serif" font-size="24.00" fill="#000000">../build/test/print_graph</text>
<text text-anchor="start" x="8" y="-1734.8" font-family="Times,serif" font-size="24.00" fill="#000000">Total samples: 20</text>
<text text-anchor="start" x="8" y="-1708.8" font-family="Times,serif" font-size="24.00" fill="#000000">Focusing on: 12</text>
<text text-anchor="start" x="8" y="-1682.8" font-family="Times,serif" font-size="24.00" fill="#000000">Dropped nodes with &lt;= 0 abs(samples)</text>
<text text-anchor="start" x="8" y="-1656.8" font-family="Times,serif" font-size="24.00" fill="#000000">Dropped edges with &lt;= 0 samples</text>
</g>
<!-- N1 -->
<g id="node2" class="node">
<title>N1</title>
<polygon fill="none" stroke="#000000" points="488.5,-1732.5 409.5,-1732.5 409.5,-1697.5 488.5,-1697.5 488.5,-1732.5"/>
<text text-anchor="middle" x="449" y="-1722.1" font-family="Times,serif" font-size="8.00" fill="#000000">__libc_start_main</text>
<text text-anchor="end" x="480.5" y="-1713.1" font-family="Times,serif" font-size="8.00" fill="#000000">0 (0.0%)</text>
<text text-anchor="end" x="480.5" y="-1704.1" font-family="Times,serif" font-size="8.00" fill="#000000">of 12 (100.0%)</text>
</g>
<!-- N2 -->
<g id="node3" class="node">
<title>N2</title>
<polygon fill="none" stroke="#000000" points="484.5,-1595 413.5,-1595 413.5,-1560 484.5,-1560 484.5,-1595"/>
<text text-anchor="middle" x="449" y="-1584.6" font-family="Times,serif" font-size="8.00" fill="#000000">main</text>
<text text-anchor="end" x="476.5" y="-1575.6" font-family="Times,serif" font-size="8.00" fill="#000000">0 (0.0%)</text>
<text text-anchor="end" x="476.5" y="-1566.6" font-family="Times,serif" font-size="8.00" fill="#000000">of 12 (100.0%)</text>
</g>
<!-- N1&#45;&gt;N2 -->
<g id="edge1" class="edge">
<title>N1&#45;&gt;N2</title>
<path fill="none" stroke="#000000" stroke-width="2" d="M449,-1697.3058C449,-1673.998 449,-1632.7543 449,-1605.2699"/>
<polygon fill="#000000" stroke="#000000" stroke-width="2" points="452.5001,-1605.1263 449,-1595.1263 445.5001,-1605.1264 452.5001,-1605.1263"/>
<text text-anchor="middle" x="457" y="-1616.8" font-family="Times,serif" font-size="14.00" fill="#000000">12</text>
</g>
<!-- N5 -->
<g id="node6" class="node">
<title>N5</title>
<polygon fill="none" stroke="#000000" points="452,-1509 382,-1509 382,-1474 452,-1474 452,-1509"/>
<text text-anchor="middle" x="417" y="-1498.6" font-family="Times,serif" font-size="8.00" fill="#000000">annotate_edges</text>
<text text-anchor="end" x="444" y="-1489.6" font-family="Times,serif" font-size="8.00" fill="#000000">0 (0.0%)</text>
<text text-anchor="end" x="444" y="-1480.6" font-family="Times,serif" font-size="8.00" fill="#000000">of 7 (58.3%)</text>
</g>
<!-- N2&#45;&gt;N5 -->
<g id="edge3" class="edge">
<title>N2&#45;&gt;N5</title>
<path fill="none" stroke="#000000" stroke-width="2" d="M442.3696,-1559.6807C437.964,-1547.8407 432.095,-1532.0679 427.1117,-1518.6752"/>
<polygon fill="#000000" stroke="#000000" stroke-width="2" points="430.2801,-1517.1538 423.5124,-1509.0022 423.7196,-1519.595 430.2801,-1517.1538"/>
<text text-anchor="middle" x="439" y="-1530.8" font-family="Times,serif" font-size="14.00" fill="#000000">7</text>
</g>
<!-- N7 -->
<g id="node8" class="node">
<title>N7</title>
<polygon fill="none" stroke="#000000" points="534.5,-1456 429.5,-1456 429.5,-1421 534.5,-1421 534.5,-1456"/>
<text text-anchor="middle" x="482" y="-1445.6" font-family="Times,serif" font-size="8.00" fill="#000000">biconnected_components</text>
<text text-anchor="end" x="526.5" y="-1436.6" font-family="Times,serif" font-size="8.00" fill="#000000">0 (0.0%)</text>
<text text-anchor="end" x="526.5" y="-1427.6" font-family="Times,serif" font-size="8.00" fill="#000000">of 4 (33.3%)</text>
</g>
<!-- N2&#45;&gt;N7 -->
<g id="edge6" class="edge">
<title>N2&#45;&gt;N7</title>
<path fill="none" stroke="#000000" stroke-width="2" d="M453.1795,-1559.8956C458.7773,-1536.3167 468.7709,-1494.2228 475.3933,-1466.328"/>
<polygon fill="#000000" stroke="#000000" stroke-width="2" points="478.8456,-1466.9386 477.7502,-1456.4006 472.0349,-1465.3216 478.8456,-1466.9386"/>
<text text-anchor="middle" x="465" y="-1530.8" font-family="Times,serif" font-size="14.00" fill="#000000">4</text>
</g>
<!-- N27 -->
<g id="node28" class="node">
<title>N27</title>
<polygon fill="none" stroke="#000000" points="579.5,-1509 522.5,-1509 522.5,-1474 579.5,-1474 579.5,-1509"/>
<text text-anchor="middle" x="551" y="-1498.6" font-family="Times,serif" font-size="8.00" fill="#000000">cutvertices</text>
<text text-anchor="end" x="571.5" y="-1489.6" font-family="Times,serif" font-size="8.00" fill="#000000">0 (0.0%)</text>
<text text-anchor="end" x="571.5" y="-1480.6" font-family="Times,serif" font-size="8.00" fill="#000000">of 1 (8.3%)</text>
</g>
<!-- N2&#45;&gt;N27 -->
<g id="edge20" class="edge">
<title>N2&#45;&gt;N27</title>
<path fill="none" stroke="#000000" d="M471.0651,-1559.9645C478.1188,-1554.2877 485.9293,-1547.927 493,-1542 502.9922,-1533.624 513.8011,-1524.2897 523.3495,-1515.947"/>
<polygon fill="#000000" stroke="#000000" points="525.8159,-1518.4393 531.0281,-1509.2152 521.2013,-1513.1757 525.8159,-1518.4393"/>
<text text-anchor="middle" x="514" y="-1530.8" font-family="Times,serif" font-size="14.00" fill="#000000">1</text>
</g>
<!-- N3 -->
<g id="node4" class="node">
<title>N3</title>
<polygon fill="none" stroke="#000000" points="479,-1183 413,-1183 413,-1148 479,-1148 479,-1183"/>
<text text-anchor="middle" x="446" y="-1172.6" font-family="Times,serif" font-size="8.00" fill="#000000">dfs</text>
<text text-anchor="end" x="471" y="-1163.6" font-family="Times,serif" font-size="8.00" fill="#000000">0 (0.0%)</text>
<text text-anchor="end" x="471" y="-1154.6" font-family="Times,serif" font-size="8.00" fill="#000000">of 11 (91.7%)</text>
</g>
<!-- N4 -->
<g id="node5" class="node">
<title>N4</title>
<polygon fill="none" stroke="#000000" points="484,-1085.5 408,-1085.5 408,-1050.5 484,-1050.5 484,-1085.5"/>
<text text-anchor="middle" x="446" y="-1075.1" font-family="Times,serif" font-size="8.00" fill="#000000">dfs_base_parents</text>
<text text-anchor="end" x="476" y="-1066.1" font-family="Times,serif" font-size="8.00" fill="#000000">0 (0.0%)</text>
<text text-anchor="end" x="476" y="-1057.1" font-family="Times,serif" font-size="8.00" fill="#000000">of 10 (83.3%)</text>
</g>
<!-- N3&#45;&gt;N4 -->
<g id="edge2" class="edge">
<title>N3&#45;&gt;N4</title>
<path fill="none" stroke="#000000" stroke-width="2" d="M446,-1147.617C446,-1133.1859 446,-1112.6245 446,-1096.012"/>
<polygon fill="#000000" stroke="#000000" stroke-width="2" points="449.5001,-1095.7696 446,-1085.7696 442.5001,-1095.7697 449.5001,-1095.7696"/>
<text text-anchor="middle" x="454" y="-1118.8" font-family="Times,serif" font-size="14.00" fill="#000000">10</text>
</g>
<!-- N25 -->
<g id="node26" class="node">
<title>N25</title>
<polygon fill="none" stroke="#000000" points="598,-1097 502,-1097 502,-1039 598,-1039 598,-1097"/>
<text text-anchor="middle" x="550" y="-1075.08" font-family="Times,serif" font-size="22.40" fill="#000000">_init</text>
<text text-anchor="end" x="590" y="-1050.08" font-family="Times,serif" font-size="22.40" fill="#000000">1 (8.3%)</text>
</g>
<!-- N3&#45;&gt;N25 -->
<g id="edge36" class="edge">
<title>N3&#45;&gt;N25</title>
<path fill="none" stroke="#000000" d="M465.0752,-1147.617C477.9761,-1135.5224 495.4701,-1119.1218 511.228,-1104.3487"/>
<polygon fill="#000000" stroke="#000000" points="513.895,-1106.646 518.7966,-1097.2532 509.1074,-1101.5393 513.895,-1106.646"/>
<text text-anchor="middle" x="502" y="-1118.8" font-family="Times,serif" font-size="14.00" fill="#000000">1</text>
</g>
<!-- N9 -->
<g id="node10" class="node">
<title>N9</title>
<polygon fill="none" stroke="#000000" points="325,-983.5 263,-983.5 263,-939.5 325,-939.5 325,-983.5"/>
<text text-anchor="middle" x="294" y="-973.1" font-family="Times,serif" font-size="8.00" fill="#000000">RSBitmap</text>
<text text-anchor="middle" x="294" y="-964.1" font-family="Times,serif" font-size="8.00" fill="#000000">get_n</text>
<text text-anchor="end" x="317" y="-955.1" font-family="Times,serif" font-size="8.00" fill="#000000">0 (0.0%)</text>
<text text-anchor="end" x="317" y="-946.1" font-family="Times,serif" font-size="8.00" fill="#000000">of 3 (25.0%)</text>
</g>
<!-- N4&#45;&gt;N9 -->
<g id="edge9" class="edge">
<title>N4&#45;&gt;N9</title>
<path fill="none" stroke="#000000" stroke-width="1.5" d="M420.9003,-1050.4137C397.135,-1033.7623 361.0803,-1008.5004 333.4678,-989.1534"/>
<polygon fill="#000000" stroke="#000000" stroke-width="1.5" points="335.3905,-986.227 325.1923,-983.3551 331.3737,-991.9599 335.3905,-986.227"/>
<text text-anchor="middle" x="379" y="-1009.8" font-family="Times,serif" font-size="14.00" fill="#000000">3</text>
</g>
<!-- N10 -->
<g id="node11" class="node">
<title>N10</title>
<polygon fill="none" stroke="#000000" points="488.5,-983.5 403.5,-983.5 403.5,-939.5 488.5,-939.5 488.5,-983.5"/>
<text text-anchor="middle" x="446" y="-973.1" font-family="Times,serif" font-size="8.00" fill="#000000">SegmentedArray</text>
<text text-anchor="middle" x="446" y="-964.1" font-family="Times,serif" font-size="8.00" fill="#000000">select_segment_pos</text>
<text text-anchor="end" x="480.5" y="-955.1" font-family="Times,serif" font-size="8.00" fill="#000000">0 (0.0%)</text>
<text text-anchor="end" x="480.5" y="-946.1" font-family="Times,serif" font-size="8.00" fill="#000000">of 3 (25.0%)</text>
</g>
<!-- N4&#45;&gt;N10 -->
<g id="edge11" class="edge">
<title>N4&#45;&gt;N10</title>
<path fill="none" stroke="#000000" stroke-width="1.5" d="M446,-1050.4137C446,-1035.0321 446,-1012.303 446,-993.6761"/>
<polygon fill="#000000" stroke="#000000" stroke-width="1.5" points="449.5001,-993.5466 446,-983.5467 442.5001,-993.5467 449.5001,-993.5466"/>
<text text-anchor="middle" x="450" y="-1009.8" font-family="Times,serif" font-size="14.00" fill="#000000">3</text>
</g>
<!-- N15 -->
<g id="node16" class="node">
<title>N15</title>
<polygon fill="none" stroke="#000000" points="564,-337 502,-337 502,-293 564,-293 564,-337"/>
<text text-anchor="middle" x="533" y="-326.6" font-family="Times,serif" font-size="8.00" fill="#000000">RSBitmap</text>
<text text-anchor="middle" x="533" y="-317.6" font-family="Times,serif" font-size="8.00" fill="#000000">set_n</text>
<text text-anchor="end" x="556" y="-308.6" font-family="Times,serif" font-size="8.00" fill="#000000">0 (0.0%)</text>
<text text-anchor="end" x="556" y="-299.6" font-family="Times,serif" font-size="8.00" fill="#000000">of 2 (16.7%)</text>
</g>
<!-- N4&#45;&gt;N15 -->
<g id="edge32" class="edge">
<title>N4&#45;&gt;N15</title>
<path fill="none" stroke="#000000" d="M467.3023,-1050.3873C488.2158,-1030.9934 517,-997.7214 517,-961.5 517,-961.5 517,-961.5 517,-429.5 517,-401.4766 521.759,-369.9632 526.0861,-347.1018"/>
<polygon fill="#000000" stroke="#000000" points="529.528,-347.7381 528.0252,-337.2504 522.6597,-346.3862 529.528,-347.7381"/>
<text text-anchor="middle" x="521" y="-667.3" font-family="Times,serif" font-size="14.00" fill="#000000">1</text>
</g>
<!-- N18 -->
<g id="node19" class="node">
<title>N18</title>
<polygon fill="none" stroke="#000000" points="620,-988 558,-988 558,-935 620,-935 620,-988"/>
<text text-anchor="middle" x="589" y="-977.6" font-family="Times,serif" font-size="8.00" fill="#000000">std</text>
<text text-anchor="middle" x="589" y="-968.6" font-family="Times,serif" font-size="8.00" fill="#000000">function</text>
<text text-anchor="middle" x="589" y="-959.6" font-family="Times,serif" font-size="8.00" fill="#000000">operator</text>
<text text-anchor="end" x="612" y="-950.6" font-family="Times,serif" font-size="8.00" fill="#000000">0 (0.0%)</text>
<text text-anchor="end" x="612" y="-941.6" font-family="Times,serif" font-size="8.00" fill="#000000">of 2 (16.7%)</text>
</g>
<!-- N4&#45;&gt;N18 -->
<g id="edge12" class="edge">
<title>N4&#45;&gt;N18</title>
<path fill="none" stroke="#000000" d="M473.5356,-1050.3089C479.8532,-1046.4471 486.5968,-1042.4782 493,-1039 509.4215,-1030.0798 515.7933,-1031.8624 531,-1021 541.1795,-1013.7287 551.1178,-1004.5561 559.8104,-995.6047"/>
<polygon fill="#000000" stroke="#000000" points="562.4903,-997.8641 566.7971,-988.1841 557.3938,-993.0656 562.4903,-997.8641"/>
<text text-anchor="middle" x="552" y="-1009.8" font-family="Times,serif" font-size="14.00" fill="#000000">2</text>
</g>
<!-- N33 -->
<g id="node34" class="node">
<title>N33</title>
<polygon fill="none" stroke="#000000" points="743.5,-988 686.5,-988 686.5,-935 743.5,-935 743.5,-988"/>
<text text-anchor="middle" x="715" y="-977.6" font-family="Times,serif" font-size="8.00" fill="#000000">std</text>
<text text-anchor="middle" x="715" y="-968.6" font-family="Times,serif" font-size="8.00" fill="#000000">tuple</text>
<text text-anchor="middle" x="715" y="-959.6" font-family="Times,serif" font-size="8.00" fill="#000000">operator=</text>
<text text-anchor="end" x="735.5" y="-950.6" font-family="Times,serif" font-size="8.00" fill="#000000">0 (0.0%)</text>
<text text-anchor="end" x="735.5" y="-941.6" font-family="Times,serif" font-size="8.00" fill="#000000">of 1 (8.3%)</text>
</g>
<!-- N4&#45;&gt;N33 -->
<g id="edge33" class="edge">
<title>N4&#45;&gt;N33</title>
<path fill="none" stroke="#000000" d="M471.6192,-1050.34C478.366,-1046.2125 485.7821,-1042.117 493,-1039 521.307,-1026.7759 530.6786,-1030.5379 560,-1021 600.4397,-1007.8455 645.7476,-990.0915 676.8816,-977.4084"/>
<polygon fill="#000000" stroke="#000000" points="678.5413,-980.5109 686.4679,-973.481 675.8875,-974.0334 678.5413,-980.5109"/>
<text text-anchor="middle" x="607" y="-1009.8" font-family="Times,serif" font-size="14.00" fill="#000000">1</text>
</g>
<!-- N6 -->
<g id="node7" class="node">
<title>N6</title>
<polygon fill="none" stroke="#000000" points="448,-1379 384,-1379 384,-1344 448,-1344 448,-1379"/>
<text text-anchor="middle" x="416" y="-1368.6" font-family="Times,serif" font-size="8.00" fill="#000000">update_edges</text>
<text text-anchor="end" x="440" y="-1359.6" font-family="Times,serif" font-size="8.00" fill="#000000">0 (0.0%)</text>
<text text-anchor="end" x="440" y="-1350.6" font-family="Times,serif" font-size="8.00" fill="#000000">of 7 (58.3%)</text>
</g>
<!-- N5&#45;&gt;N6 -->
<g id="edge4" class="edge">
<title>N5&#45;&gt;N6</title>
<path fill="none" stroke="#000000" stroke-width="2" d="M416.8651,-1473.9676C416.6981,-1452.2577 416.4116,-1415.0139 416.2144,-1389.3705"/>
<polygon fill="#000000" stroke="#000000" stroke-width="2" points="419.7128,-1389.1425 416.1359,-1379.1698 412.713,-1389.1964 419.7128,-1389.1425"/>
<text text-anchor="middle" x="421" y="-1434.8" font-family="Times,serif" font-size="14.00" fill="#000000">7</text>
</g>
<!-- N6&#45;&gt;N3 -->
<g id="edge10" class="edge">
<title>N6&#45;&gt;N3</title>
<path fill="none" stroke="#000000" stroke-width="1.5" d="M418.7152,-1343.7606C423.9583,-1309.5055 435.5102,-1234.0331 441.7696,-1193.1388"/>
<polygon fill="#000000" stroke="#000000" stroke-width="1.5" points="445.2592,-1193.4725 443.3125,-1183.0581 438.3398,-1192.4134 445.2592,-1193.4725"/>
<text text-anchor="middle" x="440" y="-1247.8" font-family="Times,serif" font-size="14.00" fill="#000000">3</text>
</g>
<!-- N8 -->
<g id="node9" class="node">
<title>N8</title>
<polygon fill="none" stroke="#000000" points="410,-1269 348,-1269 348,-1234 410,-1234 410,-1269"/>
<text text-anchor="middle" x="379" y="-1258.6" font-family="Times,serif" font-size="8.00" fill="#000000">mark_edges</text>
<text text-anchor="end" x="402" y="-1249.6" font-family="Times,serif" font-size="8.00" fill="#000000">0 (0.0%)</text>
<text text-anchor="end" x="402" y="-1240.6" font-family="Times,serif" font-size="8.00" fill="#000000">of 4 (33.3%)</text>
</g>
<!-- N6&#45;&gt;N8 -->
<g id="edge7" class="edge">
<title>N6&#45;&gt;N8</title>
<path fill="none" stroke="#000000" stroke-width="2" d="M410.0553,-1343.8266C404.1486,-1326.2662 395.0089,-1299.0939 388.1716,-1278.7668"/>
<polygon fill="#000000" stroke="#000000" stroke-width="2" points="391.4355,-1277.4919 384.9299,-1269.1295 384.8008,-1279.7236 391.4355,-1277.4919"/>
<text text-anchor="middle" x="400" y="-1290.8" font-family="Times,serif" font-size="14.00" fill="#000000">4</text>
</g>
<!-- N7&#45;&gt;N3 -->
<g id="edge5" class="edge">
<title>N7&#45;&gt;N3</title>
<path fill="none" stroke="#000000" stroke-width="2" d="M480.5522,-1420.831C477.172,-1381.2718 467.9725,-1282.6418 454,-1201 453.5617,-1198.4391 453.0578,-1195.7848 452.5206,-1193.1333"/>
<polygon fill="#000000" stroke="#000000" stroke-width="2" points="455.8903,-1192.1562 450.3527,-1183.1237 449.0489,-1193.638 455.8903,-1192.1562"/>
<text text-anchor="middle" x="473" y="-1290.8" font-family="Times,serif" font-size="14.00" fill="#000000">4</text>
</g>
<!-- N8&#45;&gt;N3 -->
<g id="edge8" class="edge">
<title>N8&#45;&gt;N3</title>
<path fill="none" stroke="#000000" stroke-width="2" d="M392.8824,-1233.6807C402.4684,-1221.3764 415.3633,-1204.8247 426.0473,-1191.1109"/>
<polygon fill="#000000" stroke="#000000" stroke-width="2" points="428.9798,-1193.0418 432.3646,-1183.0022 423.4578,-1188.7398 428.9798,-1193.0418"/>
<text text-anchor="middle" x="421" y="-1204.8" font-family="Times,serif" font-size="14.00" fill="#000000">4</text>
</g>
<!-- N12 -->
<g id="node13" class="node">
<title>N12</title>
<polygon fill="none" stroke="#000000" points="302,-880.5 166,-880.5 166,-779.5 302,-779.5 302,-880.5"/>
<text text-anchor="middle" x="234" y="-853.78" font-family="Times,serif" font-size="28.40" fill="#000000">RSBitmap</text>
<text text-anchor="middle" x="234" y="-822.78" font-family="Times,serif" font-size="28.40" fill="#000000">find_slate</text>
<text text-anchor="end" x="294" y="-791.78" font-family="Times,serif" font-size="28.40" fill="#000000">2 (16.7%)</text>
</g>
<!-- N9&#45;&gt;N12 -->
<g id="edge17" class="edge">
<title>N9&#45;&gt;N12</title>
<path fill="none" stroke="#000000" d="M283.9573,-939.4899C277.7075,-925.7922 269.3427,-907.4594 261.2475,-889.7174"/>
<polygon fill="#000000" stroke="#000000" points="264.3868,-888.1659 257.0514,-880.521 258.0183,-891.0717 264.3868,-888.1659"/>
<text text-anchor="middle" x="277" y="-905.8" font-family="Times,serif" font-size="14.00" fill="#000000">2</text>
</g>
<!-- N13 -->
<g id="node14" class="node">
<title>N13</title>
<polygon fill="none" stroke="#000000" points="300,-721.5 164,-721.5 164,-620.5 300,-620.5 300,-721.5"/>
<text text-anchor="middle" x="232" y="-694.78" font-family="Times,serif" font-size="28.40" fill="#000000">RSBitmap</text>
<text text-anchor="middle" x="232" y="-663.78" font-family="Times,serif" font-size="28.40" fill="#000000">n</text>
<text text-anchor="end" x="292" y="-632.78" font-family="Times,serif" font-size="28.40" fill="#000000">2 (16.7%)</text>
</g>
<!-- N9&#45;&gt;N13 -->
<g id="edge23" class="edge">
<title>N9&#45;&gt;N13</title>
<path fill="none" stroke="#000000" d="M262.807,-954.8204C228.07,-945.5315 173.5801,-925.0084 149,-884 124.3226,-842.8293 133.2439,-821.3403 149,-776 154.7066,-759.5785 164.1668,-743.7872 174.6992,-729.6604"/>
<polygon fill="#000000" stroke="#000000" points="177.6341,-731.5875 181.0041,-721.5429 172.1058,-727.2936 177.6341,-731.5875"/>
<text text-anchor="middle" x="153" y="-826.3" font-family="Times,serif" font-size="14.00" fill="#000000">1</text>
</g>
<!-- N16 -->
<g id="node17" class="node">
<title>N16</title>
<polygon fill="none" stroke="#000000" points="488.5,-852 413.5,-852 413.5,-808 488.5,-808 488.5,-852"/>
<text text-anchor="middle" x="451" y="-841.6" font-family="Times,serif" font-size="8.00" fill="#000000">SegmentedArray</text>
<text text-anchor="middle" x="451" y="-832.6" font-family="Times,serif" font-size="8.00" fill="#000000">select_array_pos</text>
<text text-anchor="end" x="480.5" y="-823.6" font-family="Times,serif" font-size="8.00" fill="#000000">0 (0.0%)</text>
<text text-anchor="end" x="480.5" y="-814.6" font-family="Times,serif" font-size="8.00" fill="#000000">of 2 (16.7%)</text>
</g>
<!-- N10&#45;&gt;N16 -->
<g id="edge14" class="edge">
<title>N10&#45;&gt;N16</title>
<path fill="none" stroke="#000000" d="M446.8369,-939.4899C447.6409,-918.3448 448.8649,-886.154 449.7779,-862.1422"/>
<polygon fill="#000000" stroke="#000000" points="453.2778,-862.2077 450.1604,-852.082 446.2829,-861.9417 453.2778,-862.2077"/>
<text text-anchor="middle" x="453" y="-905.8" font-family="Times,serif" font-size="14.00" fill="#000000">2</text>
</g>
<!-- N24 -->
<g id="node25" class="node">
<title>N24</title>
<polygon fill="none" stroke="#000000" points="395.5,-852 320.5,-852 320.5,-808 395.5,-808 395.5,-852"/>
<text text-anchor="middle" x="358" y="-841.6" font-family="Times,serif" font-size="8.00" fill="#000000">SegmentedArray</text>
<text text-anchor="middle" x="358" y="-832.6" font-family="Times,serif" font-size="8.00" fill="#000000">get_pos</text>
<text text-anchor="end" x="387.5" y="-823.6" font-family="Times,serif" font-size="8.00" fill="#000000">0 (0.0%)</text>
<text text-anchor="end" x="387.5" y="-814.6" font-family="Times,serif" font-size="8.00" fill="#000000">of 1 (8.3%)</text>
</g>
<!-- N10&#45;&gt;N24 -->
<g id="edge29" class="edge">
<title>N10&#45;&gt;N24</title>
<path fill="none" stroke="#000000" d="M431.2708,-939.4899C416.8032,-917.8707 394.6086,-884.7049 378.4372,-860.5397"/>
<polygon fill="#000000" stroke="#000000" points="381.2477,-858.4462 372.7773,-852.082 375.4301,-862.3393 381.2477,-858.4462"/>
<text text-anchor="middle" x="420" y="-905.8" font-family="Times,serif" font-size="14.00" fill="#000000">1</text>
</g>
<!-- N11 -->
<g id="node12" class="node">
<title>N11</title>
<polygon fill="none" stroke="#000000" points="617,-242 449,-242 449,-134 617,-134 617,-242"/>
<text text-anchor="middle" x="533" y="-220.08" font-family="Times,serif" font-size="22.40" fill="#000000">ConstTimeArray</text>
<text text-anchor="middle" x="533" y="-195.08" font-family="Times,serif" font-size="22.40" fill="#000000">ref</text>
<text text-anchor="end" x="609" y="-170.08" font-family="Times,serif" font-size="22.40" fill="#000000">1 (8.3%)</text>
<text text-anchor="end" x="609" y="-145.08" font-family="Times,serif" font-size="22.40" fill="#000000">of 2 (16.7%)</text>
</g>
<!-- N20 -->
<g id="node21" class="node">
<title>N20</title>
<polygon fill="none" stroke="#000000" points="643,-83 423,-83 423,0 643,0 643,-83"/>
<text text-anchor="middle" x="533" y="-61.08" font-family="Times,serif" font-size="22.40" fill="#000000">ConstTimeInitArrImpl</text>
<text text-anchor="middle" x="533" y="-36.08" font-family="Times,serif" font-size="22.40" fill="#000000">get_pos</text>
<text text-anchor="end" x="635" y="-11.08" font-family="Times,serif" font-size="22.40" fill="#000000">1 (8.3%)</text>
</g>
<!-- N11&#45;&gt;N20 -->
<g id="edge24" class="edge">
<title>N11&#45;&gt;N20</title>
<path fill="none" stroke="#000000" d="M533,-133.865C533,-120.6161 533,-106.4701 533,-93.3319"/>
<polygon fill="#000000" stroke="#000000" points="536.5001,-93.0478 533,-83.0479 529.5001,-93.0479 536.5001,-93.0478"/>
<text text-anchor="middle" x="537" y="-104.8" font-family="Times,serif" font-size="14.00" fill="#000000">1</text>
</g>
<!-- N14 -->
<g id="node15" class="node">
<title>N14</title>
<polygon fill="none" stroke="#000000" points="472,-693 410,-693 410,-649 472,-649 472,-693"/>
<text text-anchor="middle" x="441" y="-682.6" font-family="Times,serif" font-size="8.00" fill="#000000">RSBitmap</text>
<text text-anchor="middle" x="441" y="-673.6" font-family="Times,serif" font-size="8.00" fill="#000000">next_one</text>
<text text-anchor="end" x="464" y="-664.6" font-family="Times,serif" font-size="8.00" fill="#000000">0 (0.0%)</text>
<text text-anchor="end" x="464" y="-655.6" font-family="Times,serif" font-size="8.00" fill="#000000">of 2 (16.7%)</text>
</g>
<!-- N22 -->
<g id="node23" class="node">
<title>N22</title>
<polygon fill="none" stroke="#000000" points="375.5,-566 318.5,-566 318.5,-522 375.5,-522 375.5,-566"/>
<text text-anchor="middle" x="347" y="-555.6" font-family="Times,serif" font-size="8.00" fill="#000000">RSBitmap</text>
<text text-anchor="middle" x="347" y="-546.6" font-family="Times,serif" font-size="8.00" fill="#000000">rank</text>
<text text-anchor="end" x="367.5" y="-537.6" font-family="Times,serif" font-size="8.00" fill="#000000">0 (0.0%)</text>
<text text-anchor="end" x="367.5" y="-528.6" font-family="Times,serif" font-size="8.00" fill="#000000">of 1 (8.3%)</text>
</g>
<!-- N14&#45;&gt;N22 -->
<g id="edge18" class="edge">
<title>N14&#45;&gt;N22</title>
<path fill="none" stroke="#000000" d="M424.6264,-648.8783C409.3541,-628.2444 386.4401,-597.2861 369.4625,-574.3483"/>
<polygon fill="#000000" stroke="#000000" points="372.2638,-572.2499 363.5013,-566.2943 366.6374,-576.4144 372.2638,-572.2499"/>
<text text-anchor="middle" x="390" y="-587.8" font-family="Times,serif" font-size="14.00" fill="#000000">1</text>
</g>
<!-- N23 -->
<g id="node24" class="node">
<title>N23</title>
<polygon fill="none" stroke="#000000" points="469.5,-566 412.5,-566 412.5,-522 469.5,-522 469.5,-566"/>
<text text-anchor="middle" x="441" y="-555.6" font-family="Times,serif" font-size="8.00" fill="#000000">RSBitmap</text>
<text text-anchor="middle" x="441" y="-546.6" font-family="Times,serif" font-size="8.00" fill="#000000">select</text>
<text text-anchor="end" x="461.5" y="-537.6" font-family="Times,serif" font-size="8.00" fill="#000000">0 (0.0%)</text>
<text text-anchor="end" x="461.5" y="-528.6" font-family="Times,serif" font-size="8.00" fill="#000000">of 1 (8.3%)</text>
</g>
<!-- N14&#45;&gt;N23 -->
<g id="edge28" class="edge">
<title>N14&#45;&gt;N23</title>
<path fill="none" stroke="#000000" d="M441,-648.8783C441,-628.8779 441,-599.1773 441,-576.4831"/>
<polygon fill="#000000" stroke="#000000" points="444.5001,-576.2943 441,-566.2943 437.5001,-576.2944 444.5001,-576.2943"/>
<text text-anchor="middle" x="445" y="-587.8" font-family="Times,serif" font-size="14.00" fill="#000000">1</text>
</g>
<!-- N15&#45;&gt;N11 -->
<g id="edge13" class="edge">
<title>N15&#45;&gt;N11</title>
<path fill="none" stroke="#000000" d="M533,-292.8783C533,-281.4454 533,-266.8428 533,-252.1911"/>
<polygon fill="#000000" stroke="#000000" points="536.5001,-252.0781 533,-242.0781 529.5001,-252.0782 536.5001,-252.0781"/>
<text text-anchor="middle" x="537" y="-263.8" font-family="Times,serif" font-size="14.00" fill="#000000">2</text>
</g>
<!-- N16&#45;&gt;N14 -->
<g id="edge16" class="edge">
<title>N16&#45;&gt;N14</title>
<path fill="none" stroke="#000000" d="M449.6095,-807.8917C447.9053,-780.7945 445.0031,-734.6499 443.0446,-703.5094"/>
<polygon fill="#000000" stroke="#000000" points="446.5156,-702.9368 442.3947,-693.1762 439.5294,-703.3762 446.5156,-702.9368"/>
<text text-anchor="middle" x="451" y="-746.8" font-family="Times,serif" font-size="14.00" fill="#000000">2</text>
</g>
<!-- N17 -->
<g id="node18" class="node">
<title>N17</title>
<polygon fill="none" stroke="#000000" points="667.5,-856.5 584.5,-856.5 584.5,-803.5 667.5,-803.5 667.5,-856.5"/>
<text text-anchor="middle" x="626" y="-846.1" font-family="Times,serif" font-size="8.00" fill="#000000">std</text>
<text text-anchor="middle" x="626" y="-837.1" font-family="Times,serif" font-size="8.00" fill="#000000">_Function_handler</text>
<text text-anchor="middle" x="626" y="-828.1" font-family="Times,serif" font-size="8.00" fill="#000000">_M_invoke</text>
<text text-anchor="end" x="659.5" y="-819.1" font-family="Times,serif" font-size="8.00" fill="#000000">0 (0.0%)</text>
<text text-anchor="end" x="659.5" y="-810.1" font-family="Times,serif" font-size="8.00" fill="#000000">of 2 (16.7%)</text>
</g>
<!-- N26 -->
<g id="node27" class="node">
<title>N26</title>
<polygon fill="none" stroke="#000000" points="786.5,-725 543.5,-725 543.5,-617 786.5,-617 786.5,-725"/>
<text text-anchor="middle" x="665" y="-703.08" font-family="Times,serif" font-size="22.40" fill="#000000">biconnected_components</text>
<text text-anchor="middle" x="665" y="-678.08" font-family="Times,serif" font-size="22.40" fill="#000000">{lambda#2}</text>
<text text-anchor="middle" x="665" y="-653.08" font-family="Times,serif" font-size="22.40" fill="#000000">operator</text>
<text text-anchor="end" x="778.5" y="-628.08" font-family="Times,serif" font-size="22.40" fill="#000000">1 (8.3%)</text>
</g>
<!-- N17&#45;&gt;N26 -->
<g id="edge35" class="edge">
<title>N17&#45;&gt;N26</title>
<path fill="none" stroke="#000000" d="M632.5277,-803.387C637.1208,-784.6613 643.4712,-758.7713 649.3388,-734.8496"/>
<polygon fill="#000000" stroke="#000000" points="652.7476,-735.6439 651.7307,-725.098 645.9492,-733.9763 652.7476,-735.6439"/>
<text text-anchor="middle" x="650" y="-746.8" font-family="Times,serif" font-size="14.00" fill="#000000">1</text>
</g>
<!-- N28 -->
<g id="node29" class="node">
<title>N28</title>
<polygon fill="none" stroke="#000000" points="863.5,-697.5 804.5,-697.5 804.5,-644.5 863.5,-644.5 863.5,-697.5"/>
<text text-anchor="middle" x="834" y="-687.1" font-family="Times,serif" font-size="8.00" fill="#000000">mark_edges</text>
<text text-anchor="middle" x="834" y="-678.1" font-family="Times,serif" font-size="8.00" fill="#000000">{lambda#1}</text>
<text text-anchor="middle" x="834" y="-669.1" font-family="Times,serif" font-size="8.00" fill="#000000">operator</text>
<text text-anchor="end" x="855.5" y="-660.1" font-family="Times,serif" font-size="8.00" fill="#000000">0 (0.0%)</text>
<text text-anchor="end" x="855.5" y="-651.1" font-family="Times,serif" font-size="8.00" fill="#000000">of 1 (8.3%)</text>
</g>
<!-- N17&#45;&gt;N28 -->
<g id="edge26" class="edge">
<title>N17&#45;&gt;N28</title>
<path fill="none" stroke="#000000" d="M647.2051,-803.3372C655.726,-793.8291 666.109,-783.6026 677,-776 724.1826,-743.0634 751.3023,-761.2371 796,-725 802.5117,-719.7209 808.4038,-713.0517 813.4991,-706.2172"/>
<polygon fill="#000000" stroke="#000000" points="816.6801,-707.7731 819.5135,-697.5641 810.9321,-703.7779 816.6801,-707.7731"/>
<text text-anchor="middle" x="770" y="-746.8" font-family="Times,serif" font-size="14.00" fill="#000000">1</text>
</g>
<!-- N18&#45;&gt;N17 -->
<g id="edge15" class="edge">
<title>N18&#45;&gt;N17</title>
<path fill="none" stroke="#000000" d="M596.4875,-934.889C602.0292,-915.1935 609.6437,-888.1312 615.7501,-866.4287"/>
<polygon fill="#000000" stroke="#000000" points="619.1842,-867.1456 618.5236,-856.5714 612.4459,-865.2496 619.1842,-867.1456"/>
<text text-anchor="middle" x="609" y="-905.8" font-family="Times,serif" font-size="14.00" fill="#000000">2</text>
</g>
<!-- N19 -->
<g id="node20" class="node">
<title>N19</title>
<polygon fill="none" stroke="#000000" points="682,-451.5 608,-451.5 608,-407.5 682,-407.5 682,-451.5"/>
<text text-anchor="middle" x="645" y="-441.1" font-family="Times,serif" font-size="8.00" fill="#000000">ConstTimeArray</text>
<text text-anchor="middle" x="645" y="-432.1" font-family="Times,serif" font-size="8.00" fill="#000000">set</text>
<text text-anchor="end" x="674" y="-423.1" font-family="Times,serif" font-size="8.00" fill="#000000">0 (0.0%)</text>
<text text-anchor="end" x="674" y="-414.1" font-family="Times,serif" font-size="8.00" fill="#000000">of 1 (8.3%)</text>
</g>
<!-- N19&#45;&gt;N15 -->
<g id="edge22" class="edge">
<title>N19&#45;&gt;N15</title>
<path fill="none" stroke="#000000" d="M623.4053,-407.4232C605.8193,-389.4447 580.8425,-363.9104 561.5966,-344.2349"/>
<polygon fill="#000000" stroke="#000000" points="564.0231,-341.7103 554.5284,-337.009 559.019,-346.6051 564.0231,-341.7103"/>
<text text-anchor="middle" x="589" y="-358.8" font-family="Times,serif" font-size="14.00" fill="#000000">1</text>
</g>
<!-- N21 -->
<g id="node22" class="node">
<title>N21</title>
<polygon fill="none" stroke="#000000" points="620,-1403 510,-1403 510,-1320 620,-1320 620,-1403"/>
<text text-anchor="middle" x="565" y="-1381.08" font-family="Times,serif" font-size="22.40" fill="#000000">RSBitmap</text>
<text text-anchor="middle" x="565" y="-1356.08" font-family="Times,serif" font-size="22.40" fill="#000000">get</text>
<text text-anchor="end" x="612" y="-1331.08" font-family="Times,serif" font-size="22.40" fill="#000000">1 (8.3%)</text>
</g>
<!-- N30 -->
<g id="node31" class="node">
<title>N30</title>
<polygon fill="none" stroke="#000000" points="375,-471 279,-471 279,-388 375,-388 375,-471"/>
<text text-anchor="middle" x="327" y="-449.08" font-family="Times,serif" font-size="22.40" fill="#000000">rank9sel</text>
<text text-anchor="middle" x="327" y="-424.08" font-family="Times,serif" font-size="22.40" fill="#000000">rank</text>
<text text-anchor="end" x="367" y="-399.08" font-family="Times,serif" font-size="22.40" fill="#000000">1 (8.3%)</text>
</g>
<!-- N22&#45;&gt;N30 -->
<g id="edge21" class="edge">
<title>N22&#45;&gt;N30</title>
<path fill="none" stroke="#000000" d="M343.1438,-521.9232C341.1343,-510.4189 338.5844,-495.8206 336.108,-481.6434"/>
<polygon fill="#000000" stroke="#000000" points="339.4952,-480.6934 334.3266,-471.4448 332.5996,-481.898 339.4952,-480.6934"/>
<text text-anchor="middle" x="344" y="-492.8" font-family="Times,serif" font-size="14.00" fill="#000000">1</text>
</g>
<!-- N31 -->
<g id="node32" class="node">
<title>N31</title>
<polygon fill="none" stroke="#000000" points="489,-471 393,-471 393,-388 489,-388 489,-471"/>
<text text-anchor="middle" x="441" y="-449.08" font-family="Times,serif" font-size="22.40" fill="#000000">rank9sel</text>
<text text-anchor="middle" x="441" y="-424.08" font-family="Times,serif" font-size="22.40" fill="#000000">select</text>
<text text-anchor="end" x="481" y="-399.08" font-family="Times,serif" font-size="22.40" fill="#000000">1 (8.3%)</text>
</g>
<!-- N23&#45;&gt;N31 -->
<g id="edge27" class="edge">
<title>N23&#45;&gt;N31</title>
<path fill="none" stroke="#000000" d="M441,-521.9232C441,-510.4189 441,-495.8206 441,-481.6434"/>
<polygon fill="#000000" stroke="#000000" points="444.5001,-481.4448 441,-471.4448 437.5001,-481.4449 444.5001,-481.4448"/>
<text text-anchor="middle" x="445" y="-492.8" font-family="Times,serif" font-size="14.00" fill="#000000">1</text>
</g>
<!-- N24&#45;&gt;N13 -->
<g id="edge19" class="edge">
<title>N24&#45;&gt;N13</title>
<path fill="none" stroke="#000000" d="M340.4802,-807.8917C324.4786,-787.6992 300.0952,-756.9296 278.4961,-729.6737"/>
<polygon fill="#000000" stroke="#000000" points="281.1459,-727.3821 272.1919,-721.7184 275.6597,-731.7297 281.1459,-727.3821"/>
<text text-anchor="middle" x="303" y="-746.8" font-family="Times,serif" font-size="14.00" fill="#000000">1</text>
</g>
<!-- N27&#45;&gt;N21 -->
<g id="edge25" class="edge">
<title>N27&#45;&gt;N21</title>
<path fill="none" stroke="#000000" d="M552.8881,-1473.9676C554.5698,-1458.3519 557.117,-1434.6995 559.4422,-1413.108"/>
<polygon fill="#000000" stroke="#000000" points="562.935,-1413.3621 560.5259,-1403.0448 555.9753,-1412.6125 562.935,-1413.3621"/>
<text text-anchor="middle" x="562" y="-1434.8" font-family="Times,serif" font-size="14.00" fill="#000000">1</text>
</g>
<!-- N29 -->
<g id="node30" class="node">
<title>N29</title>
<polygon fill="none" stroke="#000000" points="834,-561.5 770,-561.5 770,-526.5 834,-526.5 834,-561.5"/>
<text text-anchor="middle" x="802" y="-551.1" font-family="Times,serif" font-size="8.00" fill="#000000">mark_parents</text>
<text text-anchor="end" x="826" y="-542.1" font-family="Times,serif" font-size="8.00" fill="#000000">0 (0.0%)</text>
<text text-anchor="end" x="826" y="-533.1" font-family="Times,serif" font-size="8.00" fill="#000000">of 1 (8.3%)</text>
</g>
<!-- N28&#45;&gt;N29 -->
<g id="edge31" class="edge">
<title>N28&#45;&gt;N29</title>
<path fill="none" stroke="#000000" d="M827.2918,-644.3766C821.9053,-622.9993 814.3688,-593.0889 808.9256,-571.4861"/>
<polygon fill="#000000" stroke="#000000" points="812.2776,-570.464 806.4403,-561.6223 805.4897,-572.1744 812.2776,-570.464"/>
<text text-anchor="middle" x="819" y="-587.8" font-family="Times,serif" font-size="14.00" fill="#000000">1</text>
</g>
<!-- N29&#45;&gt;N19 -->
<g id="edge34" class="edge">
<title>N29&#45;&gt;N19</title>
<path fill="none" stroke="#000000" d="M777.8128,-526.3603C752.7609,-508.09 713.2338,-479.2629 683.8064,-457.8015"/>
<polygon fill="#000000" stroke="#000000" points="685.5527,-454.7432 675.4108,-451.6785 681.428,-460.3989 685.5527,-454.7432"/>
<text text-anchor="middle" x="750" y="-492.8" font-family="Times,serif" font-size="14.00" fill="#000000">1</text>
</g>
<!-- N32 -->
<g id="node33" class="node">
<title>N32</title>
<polygon fill="none" stroke="#000000" points="816.5,-884 685.5,-884 685.5,-776 816.5,-776 816.5,-884"/>
<text text-anchor="middle" x="751" y="-862.08" font-family="Times,serif" font-size="22.40" fill="#000000">std</text>
<text text-anchor="middle" x="751" y="-837.08" font-family="Times,serif" font-size="22.40" fill="#000000">_Tuple_impl</text>
<text text-anchor="middle" x="751" y="-812.08" font-family="Times,serif" font-size="22.40" fill="#000000">operator=</text>
<text text-anchor="end" x="808.5" y="-787.08" font-family="Times,serif" font-size="22.40" fill="#000000">1 (8.3%)</text>
</g>
<!-- N33&#45;&gt;N32 -->
<g id="edge30" class="edge">
<title>N33&#45;&gt;N32</title>
<path fill="none" stroke="#000000" d="M722.2851,-934.889C725.5403,-922.9986 729.5306,-908.4231 733.4892,-893.9629"/>
<polygon fill="#000000" stroke="#000000" points="736.9506,-894.5742 736.2154,-884.0049 730.199,-892.7258 736.9506,-894.5742"/>
<text text-anchor="middle" x="734" y="-905.8" font-family="Times,serif" font-size="14.00" fill="#000000">1</text>
</g>
</g>
</g></svg>
